<svg id="Capa_1" enable-background="new 0 0 497 497" height="300" viewBox="0 0 497 497" width="300" xmlns="http://www.w3.org/2000/svg" version="1.1" xmlns:xlink="http://www.w3.org/1999/xlink" xmlns:svgjs="http://svgjs.dev/svgjs"><g width="100%" height="100%" transform="matrix(1,0,0,1,0,0)"><g><path d="m380.426 417.497h-368.295c-6.7 0-12.131-5.431-12.131-12.131v-377.668c0-6.7 5.431-12.131 12.131-12.131h139.052l48.973 8.087 50.591-8.087h129.679c6.7 0 12.131 5.431 12.131 12.131v377.668c-.001 6.7-5.432 12.131-12.131 12.131z" fill="#ecab9f" fill-opacity="1" data-original-color="#eaae8eff" stroke="none" stroke-opacity="1"/><path d="m389.799 15.568h-22.261c6.699 0 12.131 5.431 12.131 12.131v377.668c0 6.7-5.431 12.131-12.131 12.131h22.261c6.7 0 12.131-5.431 12.131-12.131v-377.669c0-6.699-5.431-12.13-12.131-12.13z" fill="#e39b74" fill-opacity="1" data-original-color="#e39b74ff" stroke="none" stroke-opacity="1"/><path d="m244.932 105.813-39.722-19.358c-2.68-1.306-5.811-1.306-8.49 0l-39.722 19.358c-2.686 1.309-5.815-.647-5.815-3.635v-86.61h79.346l17.792 8.087.809 76.906c-.001 2.988-1.512 6.561-4.198 5.252z" fill="#fed402" fill-opacity="1" data-original-color="#fed402ff" stroke="none" stroke-opacity="1"/><g><path d="m230.529 15.568v83.226l14.403 7.019c2.686 1.309 5.815-.647 5.815-3.635v-86.61z" fill="#fac600" fill-opacity="1" data-original-color="#fac600ff" stroke="none" stroke-opacity="1"/></g><path d="m387.547 269.998h28.765v60.463h-28.765z" fill="#f7f9fa" fill-opacity="1" data-original-color="#f7f9faff" stroke="none" stroke-opacity="1"/><path d="m401.93 481.432c-13.238 0-23.969-10.731-23.969-23.969v-9.514l9.374-7.5-9.374-7.5v-75.474l9.374-7.5-9.374-7.5v-9.605c0-7.228 5.859-13.087 13.087-13.087h12.39c7.228 0 13.087 5.859 13.087 13.087v124.593c0 13.238-1.358 23.969-14.595 23.969z" fill="#6ab1cd" fill-opacity="1" data-original-color="#8ebaffff" stroke="none" stroke-opacity="1"/><path d="m412.811 319.784h-16.872c7.228 0 13.087 5.859 13.087 13.087v124.593c0 10.268-6.458 19.024-15.533 22.438 2.625.987 5.466 1.531 8.436 1.531 13.237 0 23.969-10.731 23.969-23.969v-9.514l-9.374-7.5 9.374-7.5v-75.474l-9.374-5.906 9.374-9.094v-9.605c0-7.228-5.859-13.087-13.087-13.087z" fill="#7aa3ff" fill-opacity="1" data-original-color="#7aa3ffff" stroke="none" stroke-opacity="1"/><path d="m487.626 196.222c0 52.506-33.191 95.07-85.697 95.07s-95.07-42.564-95.07-95.07 42.564-95.07 95.07-95.07 85.697 42.564 85.697 95.07z" fill="#365e7d" fill-opacity="1" data-original-color="#365e7dff" stroke="none" stroke-opacity="1"/><path d="m401.93 101.152c-2.524 0-5.025.1-7.499.293 49 3.824 87.571 44.795 87.571 94.776 0 49.982-38.571 90.953-87.571 94.777 2.474.193 4.975.294 7.499.294 52.505 0 95.07-42.564 95.07-95.07s-42.565-95.07-95.07-95.07z" fill="#2b4d66" fill-opacity="1" data-original-color="#2b4d66ff" stroke="none" stroke-opacity="1"/><path d="m456.77 196.222c0 35.464-19.376 64.214-54.84 64.214s-64.214-28.75-64.214-64.214 28.75-64.214 64.214-64.214 54.84 28.75 54.84 64.214z" fill="#f3f0f3" fill-opacity="1" data-original-color="#f3f0f3ff" stroke="none" stroke-opacity="1"/><path d="m401.93 132.008c-2.862 0-5.674.206-8.436.569 31.475 4.133 55.778 31.042 55.778 63.645s-24.303 59.511-55.778 63.645c2.763.363 5.574.569 8.436.569 35.464 0 64.214-28.75 64.214-64.214s-28.75-64.214-64.214-64.214z" fill="#e2dee2" fill-opacity="1" data-original-color="#e2dee2ff" stroke="none" stroke-opacity="1"/><path d="m377.961 357.476h31.065l6.873-2v-11l-6.873-2h-31.065z" fill="#f3f0f3" fill-opacity="1" data-original-color="#f3f0f3ff" stroke="none" stroke-opacity="1"/><path d="m377.961 447.949h31.065l6.873-2v-11l-6.873-2h-31.065z" fill="#f3f0f3" fill-opacity="1" data-original-color="#f3f0f3ff" stroke="none" stroke-opacity="1"/><g fill="#e2dee2"><path d="m409.026 342.476h16.872v15h-16.872z" fill="#e2dee2" fill-opacity="1" data-original-color="#e2dee2ff" stroke="none" stroke-opacity="1"/><path d="m409.026 432.949h16.872v15h-16.872z" fill="#e2dee2" fill-opacity="1" data-original-color="#e2dee2ff" stroke="none" stroke-opacity="1"/></g></g></g></svg>