<?xml version="1.0" encoding="iso-8859-1"?>
<!-- Generator: Adobe Illustrator 19.0.0, SVG Export Plug-In . SVG Version: 6.00 Build 0)  -->
<svg version="1.1" id="Capa_1" xmlns="http://www.w3.org/2000/svg" xmlns:xlink="http://www.w3.org/1999/xlink" x="0px" y="0px"
	 viewBox="0 0 512 512" style="enable-background:new 0 0 512 512;" xml:space="preserve">
<g>
	<polygon style="fill:#C7C5CA;" points="271,132.244 256,132.244 245.992,175.138 256,218.031 271,218.031 	"/>
	<rect x="241" y="132.242" style="fill:#C7C5CA;" width="15" height="85.79"/>
</g>
<polygon style="fill:#FFB769;" points="378.518,154.728 238.373,14.582 185.927,66.728 251.362,123.319 "/>
<polygon style="fill:#FFE5C7;" points="181.97,73.128 180.323,154.728 378.518,154.728 "/>
<path style="fill:#FFC9CC;" d="M139.275,55.63c-16.03,38.7,2.348,83.068,41.048,99.098l29.1-70.254l-27.805-29.452L139.275,55.63z"
	/>
<path style="fill:#FF8891;" d="M209.423,84.474l28.95-69.892l0,0c-38.7-16.03-83.068,2.348-99.098,41.047L209.423,84.474z"/>
<polygon style="fill:#E0E3E6;" points="512,188.61 490.737,188.61 384,208.626 277.263,188.61 256,188.61 235.984,306.06 
	256,443.971 512,443.971 "/>
<rect x="277.26" y="334.362" style="fill:#8B8896;" width="213.47" height="41.606"/>
<polygon style="fill:#F5F5F6;" points="74.42,188.61 48.076,241.334 46.498,284.552 0,337.553 0,443.971 256,443.971 256,188.61 "/>
<g>
	<rect x="147.67" y="241.332" style="fill:#49E9FF;" width="65.808" height="96.22"/>
	<polygon style="fill:#49E9FF;" points="0,337.553 125.389,337.553 125.389,241.334 48.076,241.334 	"/>
</g>
<circle style="fill:#5F536B;" cx="409.82" cy="457.792" r="45.42"/>
<circle style="fill:#8B8896;" cx="102.18" cy="457.792" r="45.42"/>
<circle style="fill:#C7C5CA;" cx="102.18" cy="457.792" r="20.16"/>
<circle style="fill:#8B8896;" cx="409.82" cy="457.792" r="20.16"/>
<path style="fill:#49E9FF;" d="M277.264,224.047l-0.001,110.316h213.474V224.048C490.726,224.054,277.264,224.047,277.264,224.047z"
	/>
<path style="fill:#E7001E;" d="M277.263,224.047V188.61h213.474v35.437c0,0-37.711,21.263-106.737,21.263
	S277.263,224.047,277.263,224.047z"/>
<g>
</g>
<g>
</g>
<g>
</g>
<g>
</g>
<g>
</g>
<g>
</g>
<g>
</g>
<g>
</g>
<g>
</g>
<g>
</g>
<g>
</g>
<g>
</g>
<g>
</g>
<g>
</g>
<g>
</g>
</svg>
