<svg version="1.1" id="Capa_1" xmlns="http://www.w3.org/2000/svg" xmlns:xlink="http://www.w3.org/1999/xlink" x="0px" y="0px" viewBox="0 0 512 512" style="enable-background:new 0 0 512 512;" xml:space="preserve" width="300" height="300" xmlns:svgjs="http://svgjs.dev/svgjs"><g width="100%" height="100%" transform="matrix(1,0,0,1,0,0)"><path style="" d="M0,0v451h244.9L451,340V0H0z" fill="#eaae56" fill-opacity="1" data-original-color="#eaae56ff" stroke="none" stroke-opacity="1"/><rect x="60" y="361" style="" width="91" height="30" fill="#824520" fill-opacity="1" data-original-color="#824520ff" stroke="none" stroke-opacity="1"/><polygon style="" points="451,0 451,340 244.9,451 226,451 226,0 " fill="#e69f34" fill-opacity="1" data-original-color="#e69f34ff" stroke="none" stroke-opacity="1"/><path style="" d="M505.699,383.299C502.4,378.8,427.301,272,346,272S187,378.8,183.701,383.299L177.4,392l6.301,8.699&#10;&#9;C187,405.2,264.699,512,346,512s156.4-106.8,159.699-111.301L512,392L505.699,383.299z" fill="#faecd8" fill-opacity="1" data-original-color="#faecd8ff" stroke="none" stroke-opacity="1"/><path style="" d="M512,392l-6.301,8.699C502.4,405.2,427.301,512,346,512V272c81.301,0,156.4,106.8,159.699,111.299&#10;&#9;L512,392z" fill="#f4d7af" fill-opacity="1" data-original-color="#f4d7afff" stroke="none" stroke-opacity="1"/><path style="" d="M346,332c-32.999,0-60,26.999-60,60c0,32.999,27.001,60,60,60s60-27.001,60-60&#10;&#9;C406,358.999,378.999,332,346,332z" fill="#6ab1cd" fill-opacity="1" data-original-color="#00aadfff" stroke="none" stroke-opacity="1"/><path style="" d="M406,392c0,32.999-27.001,60-60,60V332C378.999,332,406,358.999,406,392z" fill="#6ab1cd" fill-opacity="1" data-original-color="#0091bfff" stroke="none" stroke-opacity="1"/><path style="" d="M346,422c-16.542,0-30-13.458-30-30s13.458-30,30-30s30,13.458,30,30S362.542,422,346,422z" fill="#673416" fill-opacity="1" data-original-color="#673416ff" stroke="none" stroke-opacity="1"/><path style="" d="M376,392c0-16.542-13.458-30-30-30v60C362.542,422,376,408.542,376,392z" fill="#502912" fill-opacity="1" data-original-color="#502912ff" stroke="none" stroke-opacity="1"/><path style="" d="M151,0v181h150V0H151z" fill="#faecd8" fill-opacity="1" data-original-color="#faecd8ff" stroke="none" stroke-opacity="1"/><rect x="226" style="" width="75" height="181" fill="#f4d7af" fill-opacity="1" data-original-color="#f4d7afff" stroke="none" stroke-opacity="1"/><g>
</g><g>
</g><g>
</g><g>
</g><g>
</g><g>
</g><g>
</g><g>
</g><g>
</g><g>
</g><g>
</g><g>
</g><g>
</g><g>
</g><g>
</g></g></svg>