<svg id="Capa_1" enable-background="new 0 0 512.028 512.028" height="512" viewBox="0 0 512.028 512.028" width="512" xmlns="http://www.w3.org/2000/svg"><g><path d="m482.028 376.014v-30h-211v30h-15-15v-30h-211v30h-30v30h31.516c7.357 50.75 51.729 90 104.484 90s96.127-39.25 103.484-90h16.516 16.516c7.357 50.75 50.729 90 103.484 90s97.127-39.25 104.484-90h31.516v-30z" fill="#384949"/><path d="m376.028 496.014c52.755 0 97.127-39.25 104.484-90h31.516v-30h-30v-30h-211v30h-15v30h16.516c7.357 50.749 50.729 90 103.484 90z" fill="#293939"/><path d="m421.025 256.369c.205-20.828-10.379-40.131-28.325-51.303-10.547-6.563-15.088-19.468-16.875-26.587l-14.825-42.465-16.875-15-17.342 15-10.622 42.466c-1.772 7.119-6.313 20.024-16.846 26.587-17.841 11.103-28.315 30.205-28.315 50.917 0 34.413 29.844 60.029 63.047 60.029h23.906c32.893.001 62.733-25.18 63.072-59.644z" fill="#ffe1ba"/><path d="m361 91.014c0-24.814-20.186-45-45-45h-30v45 45h75z" fill="#e6f7ff"/><path d="m286 91.014h75v45h-75z" fill="#cce6ff"/><path d="m211 166.014h45c24.814 0 45-20.186 45-45v-30-30c0-24.814-20.186-45-45-45h-256v75 75h90l30-30h61z" fill="#9ef"/><path d="m90 166.014 30-30h61l30 30h45c24.814 0 45-20.186 45-45v-30h-301v75z" fill="#6cf"/><path d="m211 91.014v-15h-121v15 75h121z" fill="#e6f7ff"/><path d="m90 91.014h121v75h-121z" fill="#cce6ff"/><path d="m60.028 376.014v15c0 41.353 34.647 75 76 75s75-33.647 75-75v-15z" fill="#4a696f"/><path d="m301.028 376.014v15c0 41.353 33.647 75 75 75s76-33.647 76-75v-15z" fill="#384949"/></g></svg>