<svg id="Capa_1" enable-background="new 0 0 512 512" height="300" viewBox="0 0 512 512" width="300" xmlns="http://www.w3.org/2000/svg" version="1.1" xmlns:xlink="http://www.w3.org/1999/xlink" xmlns:svgjs="http://svgjs.dev/svgjs"><g width="100%" height="100%" transform="matrix(1,0,0,1,0,0)"><g><path d="m196.724 5.151v396.616c0 2.845 2.306 5.152 5.151 5.152h296.653c2.845 0 5.15-2.305 5.15-5.15v-396.618c0-2.845-2.305-5.151-5.15-5.151h-296.653c-2.845 0-5.151 2.306-5.151 5.151z" fill="#e5eef9" fill-opacity="1" data-original-color="#e5eef9ff" stroke="none" stroke-opacity="1"/><path d="m498.528 0h-28.844c2.845 0 5.151 2.306 5.151 5.151v396.616c0 2.845-2.306 5.151-5.151 5.151h28.844c2.845 0 5.15-2.306 5.15-5.15v-396.617c0-2.845-2.306-5.151-5.15-5.151z" fill="#c0d6f2" fill-opacity="1" data-original-color="#c0d6f2ff" stroke="none" stroke-opacity="1"/><path d="m131.883 136.377-90.808 101.327c-2.155 2.405-1.953 6.102.452 8.257l23.008 20.619c2.405 2.155 6.102 1.953 8.257-.452l90.809-101.328c2.155-2.405 1.952-6.099-.453-8.255l-23.011-20.622c-2.405-2.155-6.099-1.952-8.254.454z" fill="#6ab1cd" fill-opacity="1" data-original-color="#528fd8ff" stroke="none" stroke-opacity="1"/><path d="m154.478 237.652h-43.423l-16.304 14.651 16.304 18.995h23.806c3.66 0 7.05 1.925 8.921 5.071l14.693 24.711c1.204 2.024 1.841 4.333 1.841 6.687v154.499l31.194 17.888 31.021-17.888v-120.862c0-2.815-.758-5.576-2.197-7.995l-52.414-88.113c-2.819-4.739-7.927-7.644-13.442-7.644z" fill="#5de1c4" fill-opacity="1" data-original-color="#5de1c4ff" stroke="none" stroke-opacity="1"/><path d="m220.335 333.409-52.414-88.113c-2.82-4.74-7.928-7.644-13.443-7.644h-29.874c5.515 0 10.622 2.904 13.442 7.644l52.414 88.113c1.439 2.419 2.198 5.182 2.198 7.996v120.86h29.874v-120.861c0-2.814-.758-5.576-2.197-7.995z" fill="#31cfb5" fill-opacity="1" data-original-color="#0ed2b3ff" stroke="none" stroke-opacity="1"/><path d="m8.322 468.932v36.402c0 3.681 2.984 6.666 6.666 6.666h234.547c3.681 0 6.666-2.984 6.666-6.666v-36.402c0-3.681-2.984-6.666-6.666-6.666h-234.547c-3.681.001-6.666 2.985-6.666 6.666z" fill="#6ab1cd" fill-opacity="1" data-original-color="#017297ff" stroke="none" stroke-opacity="1"/><path d="m249.535 462.267h-29.875c3.681 0 6.666 2.984 6.666 6.665v36.402c0 3.681-2.984 6.665-6.666 6.665h29.875c3.681 0 6.666-2.984 6.666-6.666v-36.402c0-3.68-2.985-6.664-6.666-6.664z" fill="#6ab1cd" fill-opacity="1" data-original-color="#025f80ff" stroke="none" stroke-opacity="1"/><path d="m148.505 404.402h-122.938c-4.143 0-7.5-3.357-7.5-7.5s3.357-7.5 7.5-7.5h122.938c4.143 0 7.5 3.357 7.5 7.5s-3.358 7.5-7.5 7.5z" fill="#01d0fb" fill-opacity="1" data-original-color="#01d0fbff" stroke="none" stroke-opacity="1"/><path d="m160.317 374.402c-12.426 0-22.5 10.074-22.5 22.5s10.074 22.501 22.5 22.501 22.5-10.074 22.5-22.501c0-12.426-10.073-22.5-22.5-22.5z" fill="#6ab1cd" fill-opacity="1" data-original-color="#528fd8ff" stroke="none" stroke-opacity="1"/><path d="m263.303 63.12 7.781-13.365c.987-1.695 2.986-2.518 4.879-2.003 4.811 1.309 13.003 3.614 14.681 3.048 6.054-2.043 13.944-4.39 20.334-4.39 6.389 0 14.28 2.348 20.334 4.39 1.677.566 9.87-1.738 14.681-3.048 1.893-.515 3.892.307 4.879 2.003l7.781 13.365c.921 1.581.749 3.57-.429 4.97l-7.55 8.976c-1.177 1.399-1.376 3.389-.467 4.975 5.573 9.719 20.792 44.981-39.229 62.409-60.021-17.427-44.802-52.69-39.229-62.409.909-1.586.71-3.576-.467-4.975l-7.55-8.976c-1.178-1.4-1.349-3.388-.429-4.97z" fill="#ffb025" fill-opacity="1" data-original-color="#ffd15bff" stroke="none" stroke-opacity="1"/><path d="m437.688 51.561v33.107c0 2.845-2.306 5.151-5.151 5.151h-33.107c-2.845 0-5.151-2.306-5.151-5.151v-33.107c0-2.845 2.306-5.151 5.151-5.151h33.108c2.844 0 5.15 2.306 5.15 5.151z" fill="#6ab1cd" fill-opacity="1" data-original-color="#528fd8ff" stroke="none" stroke-opacity="1"/><g fill="#c0d6f2"><path d="m437.688 212.255h-174.973c-4.143 0-7.5-3.357-7.5-7.5s3.357-7.5 7.5-7.5h174.974c4.143 0 7.5 3.357 7.5 7.5s-3.358 7.5-7.501 7.5z" fill="#c0d6f2" fill-opacity="1" data-original-color="#c0d6f2ff" stroke="none" stroke-opacity="1"/><path d="m437.688 259.803h-174.973c-4.143 0-7.5-3.357-7.5-7.5s3.357-7.5 7.5-7.5h174.974c4.143 0 7.5 3.357 7.5 7.5s-3.358 7.5-7.501 7.5z" fill="#c0d6f2" fill-opacity="1" data-original-color="#c0d6f2ff" stroke="none" stroke-opacity="1"/><path d="m437.688 307.35h-174.973c-4.143 0-7.5-3.357-7.5-7.5s3.357-7.5 7.5-7.5h174.974c4.143 0 7.5 3.357 7.5 7.5s-3.358 7.5-7.501 7.5z" fill="#c0d6f2" fill-opacity="1" data-original-color="#c0d6f2ff" stroke="none" stroke-opacity="1"/></g><path d="m437.688 354.897h-90.595c-4.143 0-7.5-3.357-7.5-7.5s3.357-7.5 7.5-7.5h90.595c4.143 0 7.5 3.357 7.5 7.5s-3.357 7.5-7.5 7.5z" fill="#5de1c4" fill-opacity="1" data-original-color="#5de1c4ff" stroke="none" stroke-opacity="1"/><path d="m43.46 292.393v40.24c0 2.222 1.801 4.023 4.023 4.023h24.415c2.222 0 4.023-1.801 4.023-4.023v-40.24l-16.23-10z" fill="#6ab1cd" fill-opacity="1" data-original-color="#017297ff" stroke="none" stroke-opacity="1"/><path d="m8.322 283.712v-58.479c0-4.794 3.887-8.681 8.681-8.681h85.373c4.794 0 8.681 3.886 8.681 8.681v58.479c0 4.794-3.887 8.681-8.681 8.681h-85.373c-4.794 0-8.681-3.886-8.681-8.681z" fill="#e5eef9" fill-opacity="1" data-original-color="#e5eef9ff" stroke="none" stroke-opacity="1"/><path d="m102.376 216.553h-29.875c4.794 0 8.681 3.886 8.681 8.681v58.479c0 4.794-3.887 8.681-8.681 8.681h29.875c4.794 0 8.681-3.887 8.681-8.681v-58.479c0-4.795-3.886-8.681-8.681-8.681z" fill="#c0d6f2" fill-opacity="1" data-original-color="#c0d6f2ff" stroke="none" stroke-opacity="1"/></g></g></svg>