<svg id="Capa_1" enable-background="new 0 0 512 512" height="300" viewBox="0 0 512 512" width="300" xmlns="http://www.w3.org/2000/svg" version="1.1" xmlns:xlink="http://www.w3.org/1999/xlink" xmlns:svgjs="http://svgjs.dev/svgjs"><g width="100%" height="100%" transform="matrix(1,0,0,1,0,0)"><g><g><path d="m350.291 0h-95.346c-56.66 0-103.018 46.358-103.018 103.018v24.156c0 15.23 4.683 29.419 12.677 41.201 3.451-7.65 10.024-13.597 18.09-16.206v-3.232c0-12.434 10.116-22.55 22.551-22.55h.624v-.189c0-13.649 11.105-24.755 24.754-24.755h143.991c13.649 0 24.754 11.105 24.754 24.755v.189h.624c12.435 0 22.551 10.116 22.551 22.55v3.232c8.066 2.608 14.638 8.555 18.09 16.205 7.995-11.782 12.677-25.97 12.677-41.2v-24.156c-.001-56.66-46.359-103.018-103.019-103.018z" fill="#8ac9fe" fill-opacity="1" data-original-color="#8ac9feff" stroke="none" stroke-opacity="1" style=""/></g><path d="m163.952 167.367c3.13-6.579 8.518-11.871 15.161-14.887v-26.283c0-20.397 11.918-38.062 29.155-46.4 10.603-45.575 51.68-79.797 100.361-79.797h-53.685c-56.66 0-103.018 46.358-103.018 103.018v24.156c.001 14.803 4.438 28.612 12.026 40.193 0 .001 0 .001 0 0z" fill="#60b7ff" fill-opacity="1" data-original-color="#60b7ffff" stroke="none" stroke-opacity="1" style=""/><g><path d="m182.693 152.169v-3.232c0-12.434 10.116-22.55 22.551-22.55h.624v-.189c0-13.649 11.105-24.755 24.754-24.755h143.991c13.649 0 24.754 11.105 24.754 24.755v.189h.624c12.435 0 22.551 10.116 22.551 22.55v3.232c1.23.398 2.425.871 3.58 1.418v-27.39c0-28.402-23.107-51.509-51.509-51.509h-143.991c-28.402 0-51.509 23.107-51.509 51.509v27.39c1.155-.547 2.351-1.02 3.58-1.418z" fill="#d8ecfe" fill-opacity="1" data-original-color="#d8ecfeff" stroke="none" stroke-opacity="1" style=""/></g><g><path d="m181.693 151.446v-2.51c0-12.866 10.373-23.349 23.195-23.541.424-13.852 11.779-24.953 25.734-24.953h9.273c8.92-15.38 25.556-25.755 44.579-25.755h-53.852c-28.402 0-51.509 23.107-51.509 51.509v26.283c.841-.38 1.701-.726 2.58-1.033z" fill="#c4e2ff" fill-opacity="1" data-original-color="#c4e2ffff" stroke="none" stroke-opacity="1" style=""/></g><path d="m394.504 224.767c-1.896 5.393-4.314 10.52-7.189 15.334 1.985 3.578 3.046 7.616 3.046 11.816 0 6.521-2.544 12.658-7.165 17.279-2.929 2.929-2.929 7.678 0 10.606 1.464 1.464 3.384 2.196 5.303 2.196s3.839-.732 5.303-2.197c7.454-7.453 11.558-17.356 11.558-27.885.001-10.188-3.853-19.785-10.856-27.149z" fill="#433f43" fill-opacity="1" data-original-color="#433f43ff" stroke="none" stroke-opacity="1" style=""/><g><g fill="#f3f0f3"><path d="m144.08 306.469v55.5h11.431c3.584 0 6.5 2.916 6.5 6.5s-2.916 6.5-6.5 6.5h-36.266v36.974h58.914c3.584 0 6.5 2.916 6.5 6.5s-2.916 6.5-6.5 6.5h-15.629l29.816 59.002h12.543c2.653 0 4.811 2.158 4.811 4.811v23.244h41.55v-205.531z" fill="#f3f0f3" fill-opacity="1" data-original-color="#f3f0f3ff" stroke="none" stroke-opacity="1" style=""/><path d="m434.481 306.469h-80.497v205.531h121.705c5.69 0 10.302-4.612 10.302-10.302v-143.72c-.001-28.447-23.063-51.509-51.51-51.509z" fill="#f3f0f3" fill-opacity="1" data-original-color="#f3f0f3ff" stroke="none" stroke-opacity="1" style=""/></g><g><path d="m145.08 306.469v54.5h10.431c4.142 0 7.5 3.357 7.5 7.5s-3.358 7.5-7.5 7.5h-36.266v34.974h47.788v-52.965c0-28.448 23.061-51.509 51.509-51.509z" fill="#e2dee2" fill-opacity="1" data-original-color="#e2dee2ff" stroke="none" stroke-opacity="1" style=""/></g><g fill="#e2dee2"><path d="m404.671 357.761-42.094-91.166c-2.755 1.917-5.627 3.668-8.594 5.256v119.815l48.533-27.254c2.343-1.316 3.281-4.211 2.155-6.651z" fill="#e2dee2" fill-opacity="1" data-original-color="#e2dee2ff" stroke="none" stroke-opacity="1" style=""/><path d="m251.251 271.852c-2.967-1.588-5.839-3.339-8.594-5.255l-42.094 91.165c-1.126 2.439-.188 5.335 2.154 6.651l48.533 27.254v-119.815z" fill="#e2dee2" fill-opacity="1" data-original-color="#e2dee2ff" stroke="none" stroke-opacity="1" style=""/></g><g fill="#fff"><path d="m399.191 392.717-45.208-31.772v151.055h1l46.017-113.128c.905-2.223.154-4.775-1.809-6.155z" fill="#ffffff" fill-opacity="1" data-original-color="#ffffffff" stroke="none" stroke-opacity="1" style=""/><path d="m251.251 360.945-45.207 31.772c-1.963 1.38-2.714 3.932-1.809 6.155l46.017 113.128h1v-151.055z" fill="#ffffff" fill-opacity="1" data-original-color="#ffffffff" stroke="none" stroke-opacity="1" style=""/></g><g><path d="m353.983 354.041-51.365-47.899-51.366 47.899h-1v157.959h104.732v-157.959z" fill="#fed402" fill-opacity="1" data-original-color="#fed402ff" stroke="none" stroke-opacity="1" style=""/></g><path d="m250.252 356.341v155.659h21.176v-175.406z" fill="#fac600" fill-opacity="1" data-original-color="#fac600ff" stroke="none" stroke-opacity="1" style=""/><path d="m306.24 340.688c-.675 1.442-2.03 2.303-3.622 2.303-1.593 0-2.947-.86-3.622-2.303l-3.878-8.278v179.59h15v-179.59z" fill="#fea613" fill-opacity="1" data-original-color="#fea613ff" stroke="none" stroke-opacity="1" style=""/><path d="m313.833 281.953h-22.43c-14.772 0-28.841-3.839-41.151-10.63v85.018l52.366-48.832 52.366 48.832v-85.018c-12.311 6.791-26.38 10.63-41.151 10.63z" fill="#fea613" fill-opacity="1" data-original-color="#fea613ff" stroke="none" stroke-opacity="1" style=""/><path d="m313.833 281.953h-22.43c-7.725 0-15.255-1.059-22.446-3.03l29.133 62.188c1.798 3.839 7.257 3.839 9.056 0l29.133-62.188c-7.191 1.972-14.721 3.03-22.446 3.03z" fill="#bb5d4c" fill-opacity="1" data-original-color="#bb5d4cff" stroke="none" stroke-opacity="1" style=""/><path d="m291.403 282.954c-7.559 0-14.885-.983-21.872-2.804l28.559 60.962c1.798 3.839 7.257 3.839 9.056 0l5.974-12.752-21.271-45.406z" fill="#a44f3e" fill-opacity="1" data-original-color="#a44f3eff" stroke="none" stroke-opacity="1" style=""/><g fill="#bb5d4c"><path d="m207.746 214.086c-14.383-3.661-25.052-16.719-25.052-32.226v-30.752c-12.586 3.91-21.726 15.647-21.726 29.519v11.502c0 17.068 13.837 30.905 30.905 30.905h18.296z" fill="#bb5d4c" fill-opacity="1" data-original-color="#bb5d4cff" stroke="none" stroke-opacity="1" style=""/><path d="m422.542 151.108v30.752c0 15.507-10.67 28.565-25.053 32.226l-2.423 8.948h18.296c17.069 0 30.905-13.837 30.905-30.905v-11.502c.001-13.872-9.139-25.609-21.725-29.519z" fill="#bb5d4c" fill-opacity="1" data-original-color="#bb5d4cff" stroke="none" stroke-opacity="1" style=""/></g><g><path d="m205.244 126.387h194.747c.126 0 .251.008.376.01v-.199c0-14.224-11.531-25.755-25.755-25.755h-143.99c-14.224 0-25.755 11.531-25.755 25.755v.199c.126-.003.251-.01.377-.01z" fill="#bb5d4c" fill-opacity="1" data-original-color="#bb5d4cff" stroke="none" stroke-opacity="1" style=""/></g><g><path d="m237.106 125.387c.429-13.848 11.782-24.944 25.734-24.944h-32.218c-13.952 0-25.305 11.096-25.734 24.944z" fill="#a44f3e" fill-opacity="1" data-original-color="#a44f3eff" stroke="none" stroke-opacity="1" style=""/></g><path d="m389.291 215.111h-55.349c-6.429 0-12.271-3.54-15.247-9.238l-4.941-9.463h-22.273l-4.941 9.463c-2.976 5.698-8.818 9.238-15.247 9.238h-55.349c-3.228 0-6.346-.471-9.299-1.333 8.04 39.468 42.915 69.175 84.757 69.175h22.43c41.842 0 76.717-29.708 84.757-69.175-2.952.862-6.07 1.333-9.298 1.333z" fill="#05e39c" fill-opacity="1" data-original-color="#05e39cff" stroke="none" stroke-opacity="1" style=""/><g><path d="m398.59 213.778c-2.953.862-6.071 1.333-9.299 1.333h8.997c.098-.445.211-.885.302-1.333z" fill="#05e39c" fill-opacity="1" data-original-color="#05e39cff" stroke="none" stroke-opacity="1" style=""/><path d="m238.302 215.111h-22.358c-3.228 0-6.346-.471-9.299-1.333 8.04 39.468 42.915 69.175 84.757 69.175h22.43c1.498 0 2.984-.049 4.463-.124-39.371-2.001-71.754-30.324-79.993-67.718z" fill="#0ed290" fill-opacity="1" data-original-color="#0ed290ff" stroke="none" stroke-opacity="1" style=""/></g><g><g><g><path d="m399.991 139.387h-194.747c-5.266 0-9.551 4.284-9.551 9.55v32.924c0 11.166 9.084 20.251 20.251 20.251h55.349c1.57 0 2.998-.864 3.724-2.256l5.263-10.08c2.05-3.926 6.075-6.365 10.504-6.365h23.667c4.431 0 8.456 2.439 10.505 6.367l5.263 10.078c.726 1.392 2.152 2.256 3.723 2.256h55.349c11.167 0 20.251-9.085 20.251-20.251v-32.924c0-5.266-4.285-9.55-9.551-9.55z" fill="#8ac9fe" fill-opacity="1" data-original-color="#8ac9feff" stroke="none" stroke-opacity="1" style=""/></g><g><path d="m305.828 158.565c-3.743-1.773-8.215-.176-9.988 3.567l-10.116 21.356c.432-.048.868-.078 1.31-.078h15.324l7.037-14.855c1.774-3.744.177-8.216-3.567-9.99z" fill="#26a6fe" fill-opacity="1" data-original-color="#26a6feff" stroke="none" stroke-opacity="1" style=""/></g><path d="m239.597 181.861v-32.924c0-3.147.919-6.073 2.484-8.55h-22.494v60.725h28.197c-5.044-4.866-8.187-11.69-8.187-19.251z" fill="#60b7ff" fill-opacity="1" data-original-color="#60b7ffff" stroke="none" stroke-opacity="1" style=""/><g fill="#26a6fe"><path d="m205.244 139.387c-5.266 0-9.551 4.284-9.551 9.55v32.924c0 11.166 9.084 20.251 20.251 20.251h3.643v-62.725z" fill="#26a6fe" fill-opacity="1" data-original-color="#26a6feff" stroke="none" stroke-opacity="1" style=""/><path d="m409.542 181.86v-32.924c0-5.266-4.285-9.55-9.551-9.55h-6.841v62.346c9.326-1.808 16.392-10.026 16.392-19.872z" fill="#26a6fe" fill-opacity="1" data-original-color="#26a6feff" stroke="none" stroke-opacity="1" style=""/></g></g><g><path d="m389.291 216.111h-55.349c-6.802 0-12.984-3.746-16.133-9.775l-4.661-8.926h-21.062l-4.661 8.926c-3.149 6.029-9.331 9.775-16.133 9.775h-55.349c-18.886 0-34.251-15.365-34.251-34.251v-32.924c0-12.985 10.565-23.55 23.551-23.55h194.747c12.986 0 23.551 10.564 23.551 23.55v32.924c.001 18.886-15.364 34.251-34.25 34.251zm-98.507-33.701h23.667c4.804 0 9.169 2.646 11.392 6.904l5.263 10.078c.553 1.061 1.641 1.719 2.837 1.719h55.349c10.615 0 19.251-8.636 19.251-19.251v-32.924c0-4.715-3.836-8.55-8.551-8.55h-194.748c-4.715 0-8.551 3.835-8.551 8.55v32.924c0 10.615 8.636 19.251 19.251 19.251h55.349c1.196 0 2.284-.658 2.837-1.719l5.263-10.08c2.223-4.257 6.588-6.902 11.391-6.902z" fill="#0593fc" fill-opacity="1" data-original-color="#0593fcff" stroke="none" stroke-opacity="1" style=""/></g></g><g><g><path d="m256.26 184.558c-4.142 0-7.5-3.357-7.5-7.5v-22.11c0-4.143 3.358-7.5 7.5-7.5s7.5 3.357 7.5 7.5v22.11c0 4.142-3.358 7.5-7.5 7.5z" fill="#26a6fe" fill-opacity="1" data-original-color="#26a6feff" stroke="none" stroke-opacity="1" style=""/></g><g><path d="m348.976 184.558c-4.142 0-7.5-3.357-7.5-7.5v-22.11c0-4.143 3.358-7.5 7.5-7.5s7.5 3.357 7.5 7.5v22.11c0 4.142-3.358 7.5-7.5 7.5z" fill="#26a6fe" fill-opacity="1" data-original-color="#26a6feff" stroke="none" stroke-opacity="1" style=""/></g></g></g><g><g><path d="m329.912 263.5h-55.05c-4.142 0-7.5-3.357-7.5-7.5s3.358-7.5 7.5-7.5h55.05c4.142 0 7.5 3.357 7.5 7.5s-3.357 7.5-7.5 7.5z" fill="#00c285" fill-opacity="1" data-original-color="#00c285ff" stroke="none" stroke-opacity="1" style=""/></g><g><path d="m341.534 238.775h-78.294c-4.142 0-7.5-3.357-7.5-7.5s3.358-7.5 7.5-7.5h78.294c4.142 0 7.5 3.357 7.5 7.5s-3.358 7.5-7.5 7.5z" fill="#00c285" fill-opacity="1" data-original-color="#00c285ff" stroke="none" stroke-opacity="1" style=""/></g></g><g><path d="m136.916 298.613v-25.406c0-1.926-1.561-3.487-3.487-3.487h-22.082c-1.926 0-3.487 1.561-3.487 3.487v25.406z" fill="#554e56" fill-opacity="1" data-original-color="#554e56ff" stroke="none" stroke-opacity="1" style=""/><path d="m121 297.613v-24.406c0-1.926 1.561-3.487 3.487-3.487h-13.138c-1.926 0-3.487 1.561-3.487 3.487v24.406z" fill="#433f43" fill-opacity="1" data-original-color="#433f43ff" stroke="none" stroke-opacity="1" style=""/><path d="m193.467 483.945-29.816-59.002h-65.682v59.002z" fill="#b5adb6" fill-opacity="1" data-original-color="#b5adb6ff" stroke="none" stroke-opacity="1" style=""/><path d="m97.969 425.943h31.978v57.002h-31.978z" fill="#a79ba7" fill-opacity="1" data-original-color="#a79ba7ff" stroke="none" stroke-opacity="1" style=""/><g><path d="m204.89 482.945h-112.732c-3.209 0-5.811 2.602-5.811 5.811v17.433c0 3.209 2.602 5.811 5.811 5.811h118.543v-23.244c0-3.209-2.602-5.811-5.811-5.811z" fill="#554e56" fill-opacity="1" data-original-color="#554e56ff" stroke="none" stroke-opacity="1" style=""/></g><g><path d="m129.214 506.189v-17.433c0-3.209 2.602-5.811 5.811-5.811h-42.867c-3.209 0-5.811 2.602-5.811 5.811v17.433c0 3.209 2.602 5.811 5.811 5.811h42.868c-3.21 0-5.812-2.602-5.812-5.811z" fill="#433f43" fill-opacity="1" data-original-color="#433f43ff" stroke="none" stroke-opacity="1" style=""/></g><g><path d="m178.16 410.943h-99.999c-20.485 0-37.15-16.666-37.15-37.15s16.666-37.15 37.15-37.15h4.677c-.598-1.706-.94-3.532-.94-5.439 0-3.564 1.147-6.859 3.074-9.561h-6.812c-28.756 0-52.15 23.395-52.15 52.15s23.395 52.15 52.15 52.15h99.999c4.142 0 7.5-3.357 7.5-7.5s-3.357-7.5-7.499-7.5z" fill="#554e56" fill-opacity="1" data-original-color="#554e56ff" stroke="none" stroke-opacity="1" style=""/></g><path d="m145.08 361.97v-58.546c0-3.209-2.602-5.811-5.811-5.811h-33.761c-3.209 0-5.811 2.602-5.811 5.811v58.546z" fill="#b5adb6" fill-opacity="1" data-original-color="#b5adb6ff" stroke="none" stroke-opacity="1" style=""/><path d="m99.698 348.651v12.318h20.978v-57.546c0-3.209 2.602-5.811 5.811-5.811h-20.978c-3.209 0-5.811 2.602-5.811 5.811v10.331c9.069.661 16.227 8.21 16.227 17.448-.001 9.239-7.158 16.788-16.227 17.449z" fill="#a79ba7" fill-opacity="1" data-original-color="#a79ba7ff" stroke="none" stroke-opacity="1" style=""/><g><path d="m155.511 375.97h-66.245c-4.142 0-7.5-3.357-7.5-7.5s3.358-7.5 7.5-7.5h66.245c4.142 0 7.5 3.357 7.5 7.5s-3.358 7.5-7.5 7.5z" fill="#433f43" fill-opacity="1" data-original-color="#433f43ff" stroke="none" stroke-opacity="1" style=""/></g><g><circle cx="98.411" cy="331.203" fill="#554e56" r="17.513" fill-opacity="1" data-original-color="#554e56ff" stroke="none" stroke-opacity="1" style=""/></g><g><path d="m96.981 331.203c0-6.771 3.849-12.632 9.472-15.547-2.41-1.249-5.14-1.966-8.042-1.966-9.672 0-17.513 7.841-17.513 17.513s7.841 17.513 17.513 17.513c2.902 0 5.632-.717 8.042-1.966-5.623-2.914-9.472-8.776-9.472-15.547z" fill="#433f43" fill-opacity="1" data-original-color="#433f43ff" stroke="none" stroke-opacity="1" style=""/></g></g><g><path d="m445.067 474.688h-30.905c-4.142 0-7.5-3.357-7.5-7.5s3.358-7.5 7.5-7.5h30.905c4.142 0 7.5 3.357 7.5 7.5s-3.358 7.5-7.5 7.5z" fill="#b5adb6" fill-opacity="1" data-original-color="#b5adb6ff" stroke="none" stroke-opacity="1" style=""/></g></g></g></svg>