<svg id="Layer_1" enable-background="new 0 0 512.021 512.021" height="300" viewBox="0 0 512.021 512.021" width="300" xmlns="http://www.w3.org/2000/svg" version="1.1" xmlns:xlink="http://www.w3.org/1999/xlink" xmlns:svgjs="http://svgjs.dev/svgjs"><g width="100%" height="100%" transform="matrix(1,0,0,1,0,0)"><g><path d="m278.041 314.527h-182.116c-52.87 0-95.883 43.013-95.883 95.884v101.609h301.245l72.637-75.215v-26.394c0-52.87-43.013-95.884-95.883-95.884z" fill="#6ab1cd" fill-opacity="1" data-original-color="#78b9ebff" stroke="none" stroke-opacity="1"/><path d="m278.041 314.527h-91.058v197.493h114.304l72.637-75.215v-26.394c0-52.87-43.013-95.884-95.883-95.884z" fill="#ecab9f" fill-opacity="1" data-original-color="#6e76e5ff" stroke="none" stroke-opacity="1"/><path d="m215.093 371.012h-56.22l-19.055 141.009h94.33z" fill="#09607d" fill-opacity="1" data-original-color="#09607dff" stroke="none" stroke-opacity="1"/><path d="m234.148 512.021-19.055-141.009h-28.11v141.009z" fill="#07485e" fill-opacity="1" data-original-color="#07485eff" stroke="none" stroke-opacity="1"/><path d="m217.764 391.019 18.361-66.485v-10.007h-98.284v10.007l18.358 66.485z" fill="#07485e" fill-opacity="1" data-original-color="#07485eff" stroke="none" stroke-opacity="1"/><path d="m186.983 314.527v76.492h30.781l18.361-66.485v-10.007z" fill="#03232e" fill-opacity="1" data-original-color="#03232eff" stroke="none" stroke-opacity="1"/><path d="m277.823 124.602c-24.489 0-44.413-19.923-44.413-44.413h-15-15c0 24.489-19.923 44.413-44.413 44.413h-103.293v88.646c0 72.388 58.892 131.279 131.279 131.279s131.279-58.892 131.279-131.279v-88.646z" fill="#ffcebf" fill-opacity="1" data-original-color="#ffcebfff" stroke="none" stroke-opacity="1"/><path d="m277.823 124.602c-24.489 0-44.413-19.923-44.413-44.413h-15-15c0 13.889-6.412 26.304-16.427 34.454v229.884c72.388 0 131.279-58.892 131.279-131.279v-88.646z" fill="#ffbfab" fill-opacity="1" data-original-color="#ffbfabff" stroke="none" stroke-opacity="1"/><path d="m209.132 0h-44.298c-60.175 0-109.13 48.956-109.13 109.13v45.471h103.294c24.245 0 45.818-11.655 59.413-29.656 13.594 18.001 35.168 29.656 59.413 29.656h40.439v-45.471c-.001-60.174-48.956-109.13-109.131-109.13z" fill="#804231" fill-opacity="1" data-original-color="#804231ff" stroke="none" stroke-opacity="1"/><g><path d="m125.331 193.399h30v30.002h-30z" fill="#582b1f" fill-opacity="1" data-original-color="#582b1fff" stroke="none" stroke-opacity="1"/></g><g><path d="m218.635 193.399h30v30.002h-30z" fill="#582b1f" fill-opacity="1" data-original-color="#582b1fff" stroke="none" stroke-opacity="1"/></g><g><path d="m186.973 299.557c-12.931 0-25.863-4.167-38.436-12.5l16.575-25.006c15.119 10.022 28.604 10.021 43.721 0l16.575 25.006c-12.572 8.334-25.503 12.5-38.435 12.5z" fill="#ffbfab" fill-opacity="1" data-original-color="#ffbfabff" stroke="none" stroke-opacity="1"/></g><g><path d="m54.045 421.157h30v90.849h-30z" fill="#ecab9f" fill-opacity="1" data-original-color="#6e76e5ff" stroke="none" stroke-opacity="1"/></g><path d="m279.92 420.745v91.259l232.059.009v-91.268z" fill="#ffd422" fill-opacity="1" data-original-color="#ffd422ff" stroke="none" stroke-opacity="1"/><path d="m279.92 420.745v91.259l232.059.009v-91.268z" fill="#ff9f22" fill-opacity="1" data-original-color="#ff9f22ff" stroke="none" stroke-opacity="1"/><g><path d="m426.975 421.157h30v90.849h-30z" fill="#fff79f" fill-opacity="1" data-original-color="#fff79fff" stroke="none" stroke-opacity="1"/></g><g><path d="m426.975 421.157h30v90.849h-30z" fill="#ffd422" fill-opacity="1" data-original-color="#ffd422ff" stroke="none" stroke-opacity="1"/></g><g><path d="m218.635 193.399h30v30.002h-30z" fill="#3c1b13" fill-opacity="1" data-original-color="#3c1b13ff" stroke="none" stroke-opacity="1"/></g><path d="m209.132 0h-22.149v149.138c12.537-5.107 23.381-13.537 31.427-24.192 13.594 18.001 35.168 29.656 59.413 29.656h40.439v-45.472c0-60.174-48.955-109.13-109.13-109.13z" fill="#663325" fill-opacity="1" data-original-color="#663325ff" stroke="none" stroke-opacity="1"/><path d="m208.834 262.051c-7.555 5.009-14.703 7.514-21.851 7.516v29.989c12.928-.002 25.857-4.168 38.426-12.5z" fill="#feab93" fill-opacity="1" data-original-color="#feab93ff" stroke="none" stroke-opacity="1"/></g></g></svg>