<svg id="Capa_1" enable-background="new 0 0 512 512" height="300" viewBox="0 0 512 512" width="300" xmlns="http://www.w3.org/2000/svg" version="1.1" xmlns:xlink="http://www.w3.org/1999/xlink" xmlns:svgjs="http://svgjs.dev/svgjs"><g width="100%" height="100%" transform="matrix(1,0,0,1,0,0)"><g><g><path d="m128.699 342.517-39.459-14.217-42.91 5.64c-26.37 2.93-46.33 25.22-46.33 51.76v111.3c0 8.28 6.72 15 15 15h172.5l10-11.742v-143.058l-10-14.682h-58.801z" fill="#6c6c6c" fill-opacity="1" data-original-color="#a5deffff" stroke="none" stroke-opacity="1"/><path d="m328.67 333.93-40.15-5.41-37.478 13.997h-63.542v169.483h172.5c8.28 0 15-6.72 15-15v-111.3c0-26.54-19.95-48.84-46.33-51.77z" fill="#a2a2a2" fill-opacity="1" data-original-color="#8bcaffff" stroke="none" stroke-opacity="1"/></g><g><path d="m126.042 270.333v53.125l-19.677 13.628 81.135 89.004 10-17.69v-132.518l-10-6.061z" fill="#fcb581" fill-opacity="1" data-original-color="#fcb581ff" stroke="none" stroke-opacity="1"/><path d="m251.042 323.458v-54.166l-63.542.529v156.269l84.1-89.552z" fill="#f2a26d" fill-opacity="1" data-original-color="#f2a26dff" stroke="none" stroke-opacity="1"/></g><g><path d="m126.04 323.46-36.8 4.84 98.26 107.79 10-24.679-10-20.411z" fill="#a2a2a2" fill-opacity="1" data-original-color="#8bcaffff" stroke="none" stroke-opacity="1"/><path d="m251.04 323.46-63.54 67.54v45.09l101.02-107.57z" fill="#6ab1cd" fill-opacity="1" data-original-color="#7aaaffff" stroke="none" stroke-opacity="1"/></g><path d="m282.525 181h30c16.569 0 30-13.431 30-30 0-16.569-13.431-30-30-30h-23.57z" fill="#f2a26d" fill-opacity="1" data-original-color="#f2a26dff" stroke="none" stroke-opacity="1"/><path d="m92.525 181h-30c-16.569 0-30-13.431-30-30 0-16.569 13.431-30 30-30h30z" fill="#fcb581" fill-opacity="1" data-original-color="#fcb581ff" stroke="none" stroke-opacity="1"/><g><path d="m114.703 68.937-32.72 28.804v97.742c0 58.276 47.242 105.517 105.517 105.517l10-11.565v-206.623l-10-13.875z" fill="#fbcd9e" fill-opacity="1" data-original-color="#fbcd9eff" stroke="none" stroke-opacity="1"/><path d="m187.5 68.937v232.063c58.275 0 105.516-47.241 105.516-105.516v-126.547z" fill="#fcb581" fill-opacity="1" data-original-color="#fcb581ff" stroke="none" stroke-opacity="1"/></g><path d="m98.5 411h-5v-5c0-8.284-6.716-15-15-15s-15 6.716-15 15v5h-5c-8.284 0-15 6.716-15 15s6.716 15 15 15h5v5c0 8.284 6.716 15 15 15s15-6.716 15-15v-5h5c8.284 0 15-6.716 15-15s-6.716-15-15-15z" fill="#6c6c6c" fill-opacity="1" data-original-color="#fbf1f1ff" stroke="none" stroke-opacity="1"/><g><path d="m174.52 203.499c-4.143-7.173-13.317-9.632-20.491-5.488-7.174 4.143-9.631 13.317-5.488 20.491 8.643 14.967 23.801 22.456 38.96 22.457l10-4.271v-21.136l-10-4.565c-5.049 0-10.098-2.495-12.981-7.488z" fill="#fcb581" fill-opacity="1" data-original-color="#fcb581ff" stroke="none" stroke-opacity="1"/><path d="m220.972 198.01c-7.174-4.143-16.349-1.686-20.491 5.488-2.882 4.99-7.931 7.487-12.98 7.488v29.973c15.155.001 30.311-7.481 38.96-22.457 4.142-7.175 1.685-16.349-5.489-20.492z" fill="#f2a26d" fill-opacity="1" data-original-color="#f2a26dff" stroke="none" stroke-opacity="1"/></g><g><path d="m126.411 0c-24.541 0-44.435 19.899-44.428 44.441l.015 52.953 73.223-16.661c8.61 12.893 19.648 23.652 32.279 31.851l10-12.179v-91.17l-10-9.235z" fill="#ffb025" fill-opacity="1" data-original-color="#ffb025ff" stroke="none" stroke-opacity="1"/><path d="m256.525 0h-69.025v112.584c17.962 11.659 39.151 18.131 61.199 18.131h7.826c36.096 0 65.357-29.261 65.357-65.357 0-36.097-29.261-65.358-65.357-65.358z" fill="#fc8e00" fill-opacity="1" data-original-color="#fc8e00ff" stroke="none" stroke-opacity="1"/></g><g><path d="m376 251-25.05-10h-18.95c-16.569 0-30 13.431-30 30v226c0 8.284 6.716 15 15 15h88.975l10-7.501v-253.499z" fill="#060606" fill-opacity="1" data-original-color="#c36d59ff" stroke="none" stroke-opacity="1"/><path d="m482 241h-21l-25 10h-30.025v261h91.025c8.284 0 15-6.716 15-15v-226c0-16.569-13.431-30-30-30z" fill="#000000" fill-opacity="1" data-original-color="#b35d49ff" stroke="none" stroke-opacity="1"/></g><g><path d="m362 261-11.05 10h-18.95v211h73.975l10-5.132v-207.576l-10-8.292z" fill="#6c6c6c" fill-opacity="1" data-original-color="#fbf1f1ff" stroke="none" stroke-opacity="1"/><path d="m482 271h-21l-10.707-10h-44.318v221h76.025z" fill="#e9e2ef" fill-opacity="1" data-original-color="#e9e2efff" stroke="none" stroke-opacity="1"/></g><g><path d="m376 241h-25.05v40c0 11.046 8.954 20 20 20h35.025l10-10.435v-66.755l-10-12.809c-16.557.013-29.975 13.439-29.975 29.999z" fill="#e9e2ef" fill-opacity="1" data-original-color="#e9e2efff" stroke="none" stroke-opacity="1"/><path d="m461 241h-25c0-16.569-13.431-30-30-30-.008 0-.017.001-.025.001v89.999h35.025c11.046 0 20-8.954 20-20z" fill="#d3c9e3" fill-opacity="1" data-original-color="#d3c9e3ff" stroke="none" stroke-opacity="1"/></g><g><path d="m377 407c-8.284 0-15 6.716-15 15s6.716 15 15 15h28.975l10-15-10-15z" fill="#6ab1cd" fill-opacity="1" data-original-color="#ecab9fff" stroke="none" stroke-opacity="1"/><path d="m437 407h-31.025v30h31.025c8.284 0 15-6.716 15-15s-6.716-15-15-15z" fill="#e79787" fill-opacity="1" data-original-color="#e79787ff" stroke="none" stroke-opacity="1"/></g><g><path d="m377 347c-8.284 0-15 6.716-15 15s6.716 15 15 15h28.975l10-15-10-15z" fill="#6ab1cd" fill-opacity="1" data-original-color="#ecab9fff" stroke="none" stroke-opacity="1"/><path d="m437 347h-31.025v30h31.025c8.284 0 15-6.716 15-15s-6.716-15-15-15z" fill="#e79787" fill-opacity="1" data-original-color="#e79787ff" stroke="none" stroke-opacity="1"/></g></g></g></svg>