<svg xmlns="http://www.w3.org/2000/svg" xmlns:xlink="http://www.w3.org/1999/xlink" version="1.1" id="Capa_1" x="0px" y="0px" viewBox="0 0 512 512" style="enable-background:new 0 0 512 512;" xml:space="preserve" width="300" height="300" xmlns:svgjs="http://svgjs.dev/svgjs"><g width="100%" height="100%" transform="matrix(1,0,0,1,0,0)"><g>
	<g>
		<path style="" d="M379,460.5H133c-67.931,0-123-55.069-123-123v0c0-67.931,55.069-123,123-123h246&#10;&#9;&#9;&#9;c67.931,0,123,55.069,123,123v0C502,405.431,446.931,460.5,379,460.5z" fill="#ffffff" fill-opacity="1" data-original-color="#ffffffff" stroke="none" stroke-opacity="1"/>
		<g>
			<path style="" d="M133,254.5c-45.766,0-83,37.234-83,83s37.234,83,83,83h246c45.767,0,83-37.234,83-83&#10;&#9;&#9;&#9;&#9;s-37.233-83-83-83H133z" fill="#6ab1cd" fill-opacity="1" data-original-color="#ff7d97ff" stroke="none" stroke-opacity="1"/>
		</g>
		<rect x="133" y="174.627" style="" width="246" height="39.873" fill="#ecab9f" fill-opacity="1" data-original-color="#8aa8bdff" stroke="none" stroke-opacity="1"/>
		<path style="" d="M463.875,174.5H48.125C27.069,174.5,10,157.431,10,136.375v0C10,89.5,48,51.5,94.875,51.5h322.25&#10;&#9;&#9;&#9;C464,51.5,502,89.5,502,136.375v0C502,157.431,484.931,174.5,463.875,174.5z" fill="#6ab1cd" fill-opacity="1" data-original-color="#ff7d97ff" stroke="none" stroke-opacity="1"/>
		<path style="" d="M10,136.375L10,136.375c0,21.056,17.069,38.125,38.125,38.125h415.75&#10;&#9;&#9;&#9;c21.056,0,38.125-17.069,38.125-38.125l0,0c0-0.629-0.034-1.25-0.047-1.875H10.047C10.034,135.125,10,135.746,10,136.375z" fill="#ffffff" fill-opacity="1" data-original-color="#ffbecbff" stroke="none" stroke-opacity="1"/>
		<path style="stroke-linecap: round; stroke-linejoin: round; stroke-miterlimit: 10;" d="&#10;&#9;&#9;&#9;M379,460.5H133c-67.931,0-123-55.069-123-123v0c0-67.931,55.069-123,123-123h246c67.931,0,123,55.069,123,123v0&#10;&#9;&#9;&#9;C502,405.431,446.931,460.5,379,460.5z" fill="none" fill-opacity="1" stroke="#000000" stroke-opacity="1" data-original-stroke-color="#000000ff" stroke-width="20" data-original-stroke-width="20"/>
		<g>
			<path style="stroke-linecap: round; stroke-linejoin: round; stroke-miterlimit: 10;" d="&#10;&#9;&#9;&#9;&#9;M133,254.5c-45.766,0-83,37.234-83,83s37.234,83,83,83h246c45.767,0,83-37.234,83-83s-37.233-83-83-83H133z" fill="none" fill-opacity="1" stroke="#000000" stroke-opacity="1" data-original-stroke-color="#000000ff" stroke-width="20" data-original-stroke-width="20"/>
		</g>
		<path style="stroke-linecap: round; stroke-linejoin: round; stroke-miterlimit: 10;" d="&#10;&#9;&#9;&#9;M301,51.5h116.125C464,51.5,502,89.5,502,136.375v0c0,21.056-17.069,38.125-38.125,38.125H48.125&#10;&#9;&#9;&#9;C27.069,174.5,10,157.431,10,136.375v0C10,89.5,48,51.5,94.875,51.5H211" fill="none" fill-opacity="1" stroke="#000000" stroke-opacity="1" data-original-stroke-color="#000000ff" stroke-width="20" data-original-stroke-width="20"/>
		
			<line style="stroke-linecap: round; stroke-linejoin: round; stroke-miterlimit: 10;" x1="18.498" y1="134.5" x2="496.586" y2="134.5" fill="none" fill-opacity="1" stroke="#000000" stroke-opacity="1" data-original-stroke-color="#000000ff" stroke-width="20" data-original-stroke-width="20"/>
		
			<line style="stroke-linecap: round; stroke-linejoin: round; stroke-miterlimit: 10;" x1="379" y1="213.326" x2="379" y2="175.801" fill="none" fill-opacity="1" stroke="#000000" stroke-opacity="1" data-original-stroke-color="#000000ff" stroke-width="20" data-original-stroke-width="20"/>
		
			<line style="stroke-linecap: round; stroke-linejoin: round; stroke-miterlimit: 10;" x1="133" y1="175.801" x2="133" y2="213.326" fill="none" fill-opacity="1" stroke="#000000" stroke-opacity="1" data-original-stroke-color="#000000ff" stroke-width="20" data-original-stroke-width="20"/>
		<g>
			<path style="" d="M204.627,380.5h-64.37c-13.436,0-24.327-10.892-24.327-24.328v-37.345&#10;&#9;&#9;&#9;&#9;c0-13.436,10.892-24.328,24.327-24.328h70.536c15.018,0,26.449,13.473,24.003,28.29l-6.166,37.345&#10;&#9;&#9;&#9;&#9;C226.69,371.883,216.533,380.5,204.627,380.5z" fill="#ffffff" fill-opacity="1" data-original-color="#ffffffff" stroke="none" stroke-opacity="1"/>
			<path style="" d="M307.373,380.5h64.37c13.436,0,24.328-10.892,24.328-24.328v-37.345&#10;&#9;&#9;&#9;&#9;c0-13.436-10.892-24.328-24.328-24.328h-70.536c-15.018,0-26.449,13.473-24.003,28.29l6.166,37.345&#10;&#9;&#9;&#9;&#9;C285.31,371.883,295.467,380.5,307.373,380.5z" fill="#ffffff" fill-opacity="1" data-original-color="#ffffffff" stroke="none" stroke-opacity="1"/>
			<path style="stroke-linecap: round; stroke-linejoin: round; stroke-miterlimit: 10;" d="&#10;&#9;&#9;&#9;&#9;M204.627,380.5h-64.37c-13.436,0-24.327-10.892-24.327-24.328v-37.345c0-13.436,10.892-24.328,24.327-24.328h70.536&#10;&#9;&#9;&#9;&#9;c15.018,0,26.449,13.473,24.003,28.29l-6.166,37.345C226.69,371.883,216.533,380.5,204.627,380.5z" fill="none" fill-opacity="1" stroke="#000000" stroke-opacity="1" data-original-stroke-color="#000000ff" stroke-width="20" data-original-stroke-width="20"/>
			<path style="stroke-linecap: round; stroke-linejoin: round; stroke-miterlimit: 10;" d="&#10;&#9;&#9;&#9;&#9;M307.373,380.5h64.37c13.436,0,24.328-10.892,24.328-24.328v-37.345c0-13.436-10.892-24.328-24.328-24.328h-70.536&#10;&#9;&#9;&#9;&#9;c-15.018,0-26.449,13.473-24.003,28.29l6.166,37.345C285.31,371.883,295.467,380.5,307.373,380.5z" fill="none" fill-opacity="1" stroke="#000000" stroke-opacity="1" data-original-stroke-color="#000000ff" stroke-width="20" data-original-stroke-width="20"/>
			
				<line style="stroke-linecap: round; stroke-linejoin: round; stroke-miterlimit: 10;" x1="234.795" y1="322.79" x2="277.205" y2="322.79" fill="none" fill-opacity="1" stroke="#000000" stroke-opacity="1" data-original-stroke-color="#000000ff" stroke-width="20" data-original-stroke-width="20"/>
		</g>
		
			<line style="stroke-linecap: round; stroke-linejoin: round; stroke-miterlimit: 10;" x1="396.071" y1="318.828" x2="415.197" y2="318.828" fill="none" fill-opacity="1" stroke="#000000" stroke-opacity="1" data-original-stroke-color="#000000ff" stroke-width="20" data-original-stroke-width="20"/>
		
			<line style="stroke-linecap: round; stroke-linejoin: round; stroke-miterlimit: 10;" x1="115.929" y1="318.828" x2="96.803" y2="318.828" fill="none" fill-opacity="1" stroke="#000000" stroke-opacity="1" data-original-stroke-color="#000000ff" stroke-width="20" data-original-stroke-width="20"/>
	</g>
	
		<line style="stroke-linecap: round; stroke-linejoin: round; stroke-miterlimit: 10;" x1="256" y1="51.5" x2="256" y2="51.5" fill="none" fill-opacity="1" stroke="#000000" stroke-opacity="1" data-original-stroke-color="#000000ff" stroke-width="20" data-original-stroke-width="20"/>
</g></g></svg>