<svg id="Capa_1" enable-background="new 0 0 512 512" height="300" viewBox="0 0 512 512" width="300" xmlns="http://www.w3.org/2000/svg" version="1.1" xmlns:xlink="http://www.w3.org/1999/xlink" xmlns:svgjs="http://svgjs.dev/svgjs"><g width="100%" height="100%" transform="matrix(1,0,0,1,0,0)"><g><g><path d="m350.483 460.581v51.419h-326.534v-51.419c0-41.663 19.087-78.852 49.017-103.303 22.973-18.784 52.353-30.062 84.349-30.062h59.802c31.996 0 61.376 11.278 84.349 30.081 29.929 24.432 49.017 61.621 49.017 103.284z" fill="#f4fcff" fill-opacity="1" data-original-color="#f4fcffff" stroke="none" stroke-opacity="1"/><path d="m214.021 327.218c-31.998 0-61.378 11.28-84.35 30.065-29.928 24.448-49.017 61.637-49.017 103.302v51.415h-56.705v-51.415c0-41.665 19.089-78.854 49.017-103.302 22.987-18.785 52.367-30.065 84.35-30.065z" fill="#81343e" fill-opacity="1" data-original-color="#d9eaf3ff" stroke="none" stroke-opacity="1"/><path d="m250.528 287.639v77.527 6.898c0 34.966-28.34 63.315-63.315 63.315-34.957 0-63.298-28.349-63.298-63.315v-6.898-68.841" fill="#ffcbbe" fill-opacity="1" data-original-color="#ffcbbeff" stroke="none" stroke-opacity="1"/><path d="m321.619 251.101h-268.803c-21.585 0-39.083-17.498-39.083-39.083 0-21.585 17.498-39.083 39.083-39.083h268.804c21.585 0 39.083 17.498 39.083 39.083-.001 21.585-17.499 39.083-39.084 39.083z" fill="#eaac9d" fill-opacity="1" data-original-color="#eaac9dff" stroke="none" stroke-opacity="1"/><path d="m187.218 376.587c-62.494 0-113.155-50.661-113.155-113.155v-107.2c0-62.494 50.661-113.155 113.155-113.155 62.494 0 113.155 50.661 113.155 113.155v107.2c0 62.494-50.662 113.155-113.155 113.155z" fill="#ffddce" fill-opacity="1" data-original-color="#ffddceff" stroke="none" stroke-opacity="1"/><path d="m216.261 372.834c-9.268 2.463-18.984 3.761-29.035 3.761-62.503 0-113.164-50.661-113.164-113.163v-107.187c0-62.503 50.661-113.163 113.164-113.163 10.051 0 19.767 1.298 29.035 3.761-48.444 12.827-84.128 56.951-84.128 109.402v107.187c0 52.451 35.684 96.575 84.128 109.402z" fill="#ffcbbe" fill-opacity="1" data-original-color="#ffcbbeff" stroke="none" stroke-opacity="1"/><path d="m90.242 20.868h9.942c30.152 0 54.595 24.443 54.595 54.595v.419c0 30.152-24.443 54.595-54.595 54.595h-9.942c-30.152 0-54.595-24.443-54.595-54.595v-.419c.001-30.152 24.444-54.595 54.595-54.595z" fill="#6d798c" fill-opacity="1" data-original-color="#6d798cff" stroke="none" stroke-opacity="1"/><path d="m114.765 128.482c-4.644 1.308-9.534 1.99-14.576 1.99h-9.932c-30.157 0-54.609-24.433-54.609-54.59v-.417c0-30.157 24.452-54.59 54.609-54.59h9.932c5.042 0 9.932.682 14.576 1.99-23.087 6.35-40.032 27.484-40.032 52.599v.417c-.001 25.116 16.945 46.251 40.032 52.601z" fill="#616c7e" fill-opacity="1" data-original-color="#616c7eff" stroke="none" stroke-opacity="1"/><path d="m145.301 59.566c0 43.341 35.135 78.475 78.475 78.475 70.494 0 127.64-57.147 127.64-127.64v-10.401h-149.407c-32.452 0-58.302 27.153-56.708 59.566z" fill="#6d798c" fill-opacity="1" data-original-color="#6d798cff" stroke="none" stroke-opacity="1"/><path d="m249.249 135.498c-8.226 1.668-16.756 2.54-25.475 2.54-43.35 0-78.473-35.123-78.473-78.473-1.592-32.412 24.262-59.555 56.713-59.555h45.378c-32.451 0-58.305 27.143-56.713 59.556 0 36.469 24.869 67.118 58.57 75.932z" fill="#616c7e" fill-opacity="1" data-original-color="#616c7eff" stroke="none" stroke-opacity="1"/><g><g fill="#616c7e"><path d="m158.018 212.973c-4.267 0-7.726-3.459-7.726-7.726v-24.139c0-4.267 3.459-7.726 7.726-7.726s7.726 3.459 7.726 7.726v24.139c0 4.267-3.459 7.726-7.726 7.726z" fill="#616c7e" fill-opacity="1" data-original-color="#616c7eff" stroke="none" stroke-opacity="1"/><path d="m220.378 212.973c-4.267 0-7.726-3.459-7.726-7.726v-24.139c0-4.267 3.459-7.726 7.726-7.726s7.726 3.459 7.726 7.726v24.139c0 4.267-3.459 7.726-7.726 7.726z" fill="#616c7e" fill-opacity="1" data-original-color="#616c7eff" stroke="none" stroke-opacity="1"/></g></g><g><path d="m159.931 319.891-17.464-17.464c-2.811-2.811-2.811-7.367 0-10.178l61.86-61.86c2.811-2.811 7.367-2.811 10.178 0l17.464 17.464c2.811 2.811 2.811 7.367 0 10.178l-61.86 61.86c-2.811 2.81-7.367 2.81-10.178 0z" fill="#dd636e" fill-opacity="1" data-original-color="#dd636eff" stroke="none" stroke-opacity="1"/><path d="m142.467 247.853 17.464-17.464c2.811-2.811 7.367-2.811 10.178 0l61.86 61.86c2.811 2.811 2.811 7.367 0 10.178l-17.464 17.464c-2.811 2.811-7.367 2.811-10.178 0l-61.86-61.86c-2.811-2.811-2.811-7.367 0-10.178z" fill="#e28086" fill-opacity="1" data-original-color="#e28086ff" stroke="none" stroke-opacity="1"/></g></g><path d="m498.267 360.323v132.792c0 10.429-8.456 18.885-18.885 18.885h-243.165c-10.429 0-18.885-8.456-18.885-18.885v-132.792c0-10.429 8.456-18.885 18.885-18.885h243.166c10.429 0 18.884 8.456 18.884 18.885z" fill="#b3e59f" fill-opacity="1" data-original-color="#b3e59fff" stroke="none" stroke-opacity="1"/><circle cx="357.8" cy="426.719" fill="#95d6a4" r="59.696" fill-opacity="1" data-original-color="#95d6a4ff" stroke="none" stroke-opacity="1"/><path d="m365.776 419.134c-4.414-1.56-9.836-3.63-12.595-5.792-.167-.185-.429-1.129-.083-2.367.174-.626.746-2.131 2.292-2.597 4.522-1.363 7.393.861 7.706 1.12 3.29 2.712 8.162 2.259 10.878-1.023 2.718-3.282 2.277-8.137-1.001-10.861-1.977-1.644-4.64-3.146-7.779-4.093v-.369c0-4.267-3.459-7.726-7.726-7.726s-7.726 3.459-7.726 7.726v.836c-6.132 2.315-10.65 7.773-11.922 14.52-1.258 6.676.97 13.183 5.813 16.982 4.5 3.53 10.827 6.033 16.994 8.213 2.769.979 3.944 2.841 3.491 5.535-.353 2.1-2.162 5.662-6.701 5.693-4.834.033-5.99-.146-9.52-2.455-3.568-2.337-8.358-1.335-10.695 2.236-2.336 3.571-1.335 8.36 2.236 10.696 3.875 2.535 6.963 3.82 10.304 4.444v.434c0 4.267 3.459 7.726 7.726 7.726s7.726-3.459 7.726-7.726v-1.311c7.278-2.717 12.81-9.13 14.162-17.175 1.697-10.087-3.761-19.195-13.58-22.666z" fill="#b3e59f" fill-opacity="1" data-original-color="#b3e59fff" stroke="none" stroke-opacity="1"/><g fill="#95d6a4"><path d="m498.267 457.988v35.127c0 10.429-8.456 18.885-18.885 18.885h-35.127c.001-29.834 24.186-54.012 54.012-54.012z" fill="#95d6a4" fill-opacity="1" data-original-color="#95d6a4ff" stroke="none" stroke-opacity="1"/><path d="m498.267 360.323v35.127c-29.827 0-54.011-24.185-54.011-54.011h35.127c10.429-.001 18.884 8.455 18.884 18.884z" fill="#95d6a4" fill-opacity="1" data-original-color="#95d6a4ff" stroke="none" stroke-opacity="1"/><path d="m271.343 512h-35.127c-10.429 0-18.885-8.456-18.885-18.885v-35.127c29.835 0 54.012 24.178 54.012 54.012z" fill="#95d6a4" fill-opacity="1" data-original-color="#95d6a4ff" stroke="none" stroke-opacity="1"/><path d="m271.343 341.438c0 29.827-24.178 54.011-54.011 54.011v-35.127c0-10.429 8.456-18.885 18.885-18.885h35.126z" fill="#95d6a4" fill-opacity="1" data-original-color="#95d6a4ff" stroke="none" stroke-opacity="1"/></g></g></g></svg>