<?xml version="1.0" standalone="no"?>
<!DOCTYPE svg PUBLIC "-//W3C//DTD SVG 20010904//EN"
 "http://www.w3.org/TR/2001/REC-SVG-20010904/DTD/svg10.dtd">
<svg version="1.0" xmlns="http://www.w3.org/2000/svg"
 width="366.000000pt" height="182.000000pt" viewBox="0 0 366.000000 182.000000"
 preserveAspectRatio="xMidYMid meet">
<metadata>
Created by potrace 1.16, written by Peter Selinger 2001-2019
</metadata>
<g transform="translate(0.000000,182.000000) scale(0.100000,-0.100000)"
fill="#000000" stroke="none">
<path d="M1190 1644 c-91 -19 -214 -83 -286 -148 -54 -49 -66 -55 -110 -58
-45 -3 -49 -5 -52 -30 -3 -26 -1 -28 32 -28 l35 0 -22 -47 c-19 -41 -22 -66
-22 -163 0 -106 2 -119 28 -173 30 -59 130 -177 151 -177 7 0 17 5 24 12 8 8
-1 25 -40 67 -114 124 -142 280 -78 430 l22 51 77 0 76 0 16 -39 c53 -126 265
-150 364 -40 19 21 35 47 35 57 1 10 9 2 20 -20 67 -126 270 -146 365 -36 l34
41 11 -27 c5 -15 13 -45 16 -67 4 -22 10 -42 14 -44 14 -9 40 7 40 24 -1 14
-25 89 -45 134 -5 13 -2 17 14 17 17 0 21 6 21 30 0 28 -3 30 -35 30 -19 0
-35 4 -35 10 0 24 -75 90 -123 109 -29 11 -77 30 -107 44 -123 55 -300 71
-440 41z m324 -40 c91 -24 97 -29 51 -49 -49 -20 -93 -60 -111 -100 -8 -18
-13 -23 -14 -13 0 27 -60 89 -105 109 -24 11 -63 19 -100 19 -37 0 -76 -8
-100 -19 -39 -17 -105 -81 -105 -101 0 -6 -26 -10 -57 -10 l-58 1 45 39 c59
52 163 106 236 124 81 20 242 20 318 0z m-210 -98 c102 -42 101 -169 -1 -211
-50 -21 -92 -19 -143 8 -158 79 -22 272 144 203z m420 0 c77 -32 101 -119 49
-176 -56 -60 -163 -63 -229 -7 -38 33 -44 101 -13 141 41 53 124 71 193 42z"/>
<path d="M1170 1150 c0 -28 84 -105 150 -138 75 -37 173 -38 243 -3 60 31 149
123 141 145 -9 23 -15 20 -64 -30 -71 -72 -124 -99 -195 -98 -74 0 -140 32
-205 98 -48 50 -70 58 -70 26z"/>
<path d="M1784 1029 c-7 -11 12 -29 31 -29 6 0 3 5 -5 10 -13 8 -12 10 3 10
18 0 24 -26 6 -32 -6 -2 11 -5 37 -6 27 -1 51 3 55 9 4 7 44 11 108 11 152 -1
160 -5 21 -12 l-125 -6 126 -2 c122 -2 126 -1 137 21 11 20 11 20 8 -10 -3
-25 -1 -30 11 -26 12 5 12 7 1 15 -9 7 -4 8 14 4 23 -5 26 -3 23 14 -4 21 9
27 20 10 3 -5 0 -10 -7 -10 -9 0 -9 -3 2 -10 8 -5 20 -10 25 -10 6 0 3 5 -5
10 -13 8 -12 10 3 10 9 0 17 -4 17 -10 0 -5 12 -9 28 -9 21 1 22 2 7 6 -26 7
-63 33 -47 33 7 0 21 -6 32 -12 14 -9 23 -10 28 -3 12 17 42 18 36 0 -3 -8
-10 -12 -15 -9 -5 3 -9 0 -9 -5 0 -14 27 -14 32 0 2 6 41 12 98 13 52 1 103 6
113 10 13 6 16 5 12 -6 -5 -11 -30 -15 -108 -17 -56 -1 -103 -4 -106 -7 -2 -2
46 -4 107 -4 93 0 112 3 112 15 0 8 5 15 11 15 6 0 17 -7 25 -15 9 -8 11 -15
5 -15 -6 0 -11 -5 -11 -11 0 -8 5 -7 16 2 9 7 34 12 60 10 26 -1 44 2 44 8 0
6 5 11 11 11 5 0 7 -4 4 -10 -3 -5 -1 -10 4 -10 6 0 11 6 11 14 0 8 5 18 12
22 7 5 8 3 3 -6 -6 -10 -4 -12 8 -7 10 3 17 2 17 -3 0 -5 -8 -11 -17 -13 -11
-3 -7 -5 10 -6 22 -1 27 3 27 23 0 21 -4 23 -50 25 -27 0 -50 -3 -50 -7 0 -4
-9 -8 -20 -9 -13 -1 -18 2 -14 9 4 7 2 8 -4 4 -20 -12 -13 -29 8 -23 11 3 23
1 26 -4 3 -5 -9 -9 -25 -9 -28 0 -36 8 -32 32 0 4 -197 8 -440 8 -242 0 -444
2 -449 5 -5 3 -12 0 -16 -6z"/>
<path d="M1746 1011 c-6 -9 -4 -20 11 -58 3 -10 7 -23 9 -30 1 -6 14 -28 29
-47 25 -33 37 -41 50 -33 2 1 10 -7 18 -17 8 -11 19 -16 25 -12 7 4 12 2 12
-4 0 -7 7 -10 15 -6 8 3 15 2 15 -2 0 -4 18 -8 41 -8 24 -1 35 2 27 7 -7 4
-10 11 -6 14 3 3 13 -1 21 -10 18 -17 42 -21 31 -4 -4 7 0 9 13 5 12 -4 25 -1
33 9 7 8 16 13 20 10 12 -7 70 45 81 72 8 21 29 33 29 16 0 -14 57 -73 63 -66
4 3 -7 19 -23 34 -16 16 -25 31 -20 34 6 4 10 1 10 -5 0 -6 5 -8 12 -4 7 4 8
3 4 -4 -4 -7 -2 -12 3 -12 13 0 13 3 5 23 -4 10 -14 14 -31 11 -23 -4 -25 -3
-13 10 7 9 16 14 20 11 5 -3 6 4 3 15 -4 16 -9 18 -27 8 -32 -16 -34 -22 -6
-15 24 6 24 5 5 -8 -11 -8 -25 -19 -32 -25 -19 -16 -25 -12 -13 10 6 11 7 20
2 20 -8 0 -22 -34 -21 -48 1 -18 -111 -75 -149 -76 -12 -1 -27 -7 -31 -15 -16
-25 -20 5 -5 34 17 32 16 34 -17 37 -18 2 -23 -1 -21 -14 4 -25 -3 -23 -33 9
-14 15 -25 24 -25 20 0 -5 7 -16 16 -25 13 -13 14 -17 3 -21 -7 -2 -15 1 -17
8 -2 6 -8 8 -14 5 -6 -4 -8 2 -3 16 5 16 4 20 -4 15 -7 -4 -11 -15 -9 -25 2
-11 -1 -18 -7 -17 -5 1 -9 5 -7 10 1 4 -1 6 -5 6 -20 -3 -24 2 -14 15 10 11 8
23 -9 55 -11 23 -17 41 -13 41 4 0 -3 9 -15 20 -24 22 -28 24 -36 11z"/>
<path d="M1964 674 c12 -46 36 -74 60 -70 15 3 23 -1 23 -10 0 -10 -4 -11 -14
-3 -20 17 -16 -6 5 -24 33 -30 110 -50 169 -44 104 11 168 61 197 155 l7 22
-226 0 -227 0 6 -26z"/>
</g>
</svg>
