<?xml version="1.0" standalone="no"?>
<!DOCTYPE svg PUBLIC "-//W3C//DTD SVG 20010904//EN"
 "http://www.w3.org/TR/2001/REC-SVG-20010904/DTD/svg10.dtd">
<svg version="1.0" xmlns="http://www.w3.org/2000/svg"
 width="366.000000pt" height="182.000000pt" viewBox="0 0 366.000000 182.000000"
 preserveAspectRatio="xMidYMid meet">
<metadata>
Created by potrace 1.16, written by Peter Selinger 2001-2019
</metadata>
<g transform="translate(0.000000,182.000000) scale(0.100000,-0.100000)"
fill="#000000" stroke="none">
<path d="M1190 1644 c-91 -19 -214 -83 -286 -148 -54 -49 -66 -55 -110 -58
-45 -3 -49 -5 -52 -30 -3 -26 -1 -28 31 -28 l35 0 -25 -62 c-22 -55 -25 -72
-21 -162 5 -123 31 -186 115 -276 56 -61 70 -69 91 -48 8 8 -1 25 -40 67 -114
124 -142 280 -78 430 l22 51 77 0 76 0 16 -39 c54 -127 268 -150 364 -38 19
22 35 48 35 56 1 9 10 -1 20 -21 67 -126 270 -146 365 -36 l34 41 11 -27 c5
-15 13 -45 16 -67 4 -22 10 -42 14 -44 14 -9 40 7 40 24 -1 14 -25 89 -45 134
-5 13 -2 17 14 17 17 0 21 6 21 30 0 28 -3 30 -35 30 -19 0 -35 4 -35 10 0 24
-75 90 -123 109 -29 11 -77 30 -107 44 -123 55 -300 71 -440 41z m324 -40 c91
-24 97 -29 51 -49 -49 -20 -93 -60 -111 -100 -8 -18 -13 -23 -14 -13 0 27 -60
89 -105 109 -24 11 -63 19 -100 19 -37 0 -76 -8 -100 -19 -39 -17 -105 -81
-105 -101 0 -6 -26 -10 -57 -10 l-58 1 45 39 c59 52 163 106 236 124 81 20
242 20 318 0z m-210 -98 c102 -42 101 -169 -1 -211 -50 -21 -92 -19 -143 8
-158 79 -22 272 144 203z m420 0 c77 -32 101 -119 49 -176 -56 -60 -163 -63
-229 -7 -38 33 -44 101 -13 141 41 53 124 71 193 42z"/>
<path d="M1170 1150 c0 -28 84 -105 150 -138 75 -37 173 -38 243 -3 46 24 147
120 147 140 0 28 -27 17 -78 -32 -78 -74 -114 -91 -187 -91 -73 0 -126 25
-200 95 -56 53 -75 60 -75 29z"/>
<path d="M2729 1038 c0 -2 -2 -11 -4 -21 -5 -26 -11 -31 -31 -23 -9 3 -14 13
-10 21 4 13 -53 14 -442 14 -246 0 -438 -4 -427 -8 17 -7 16 -8 -9 -15 -15 -4
-36 -4 -47 -1 -17 6 -19 3 -13 -22 19 -81 77 -159 110 -146 12 4 15 3 10 -5
-9 -15 43 -37 57 -23 10 10 -27 26 -41 17 -5 -3 -9 1 -9 9 0 18 2 18 30 4 21
-10 21 -10 3 5 -11 9 -26 16 -34 16 -9 0 -11 7 -7 23 5 19 4 20 -5 4 -6 -9 -8
-22 -5 -27 3 -6 0 -10 -7 -10 -8 0 -14 10 -16 23 -1 12 -10 40 -21 62 -18 38
-18 65 1 65 5 0 6 -4 3 -10 -3 -5 3 -10 14 -10 12 0 21 5 21 11 0 5 -6 7 -12
3 -9 -5 -9 -2 1 9 7 9 19 17 25 17 6 0 4 -5 -4 -10 -11 -7 -11 -10 -2 -10 7 0
11 -4 7 -9 -3 -6 58 -10 149 -10 150 -1 155 -1 161 20 6 17 9 19 16 8 7 -11 9
-11 9 -1 0 7 5 10 11 6 8 -4 4 -11 -11 -19 -16 -8 -19 -14 -9 -17 15 -5 50 22
43 34 -3 4 -1 8 5 8 5 0 13 -9 16 -20 5 -16 15 -20 46 -20 24 0 38 4 34 10 -3
6 -1 10 4 10 6 0 11 -6 12 -12 0 -7 4 -3 9 10 5 12 15 22 22 21 10 0 10 -2 1
-6 -7 -2 -13 -11 -13 -20 0 -12 2 -12 16 1 8 9 20 16 27 16 6 0 2 -7 -9 -15
-17 -13 -8 -14 94 -15 100 0 112 2 112 18 0 14 -2 14 -9 3 -5 -8 -16 -11 -26
-8 -9 4 -13 12 -9 18 4 8 9 7 15 -2 7 -11 9 -11 9 -1 0 16 37 7 58 -14 11 -12
11 -14 -2 -14 -9 0 -16 6 -17 13 -2 21 -20 -56 -20 -86 0 -16 -9 -37 -20 -48
-10 -10 -19 -15 -19 -10 0 5 7 14 15 21 8 7 15 17 15 23 0 6 -14 -3 -31 -21
-19 -20 -28 -36 -23 -44 6 -9 3 -9 -9 1 -10 8 -20 12 -22 9 -3 -3 1 -11 9 -17
32 -26 121 60 135 131 l7 32 63 -3 c59 -2 63 -1 59 17 -5 17 -3 18 18 8 20
-10 21 -12 6 -18 -12 -5 -10 -7 11 -7 22 -1 27 3 27 23 0 21 -4 23 -50 25 -47
1 -55 -5 -51 -31 0 -5 -4 -8 -9 -8 -6 0 -8 11 -6 25 3 14 3 25 0 25 -2 0 -4
-1 -5 -2z"/>
<path d="M2215 960 l-20 -9 20 -1 c11 -2 23 -2 27 -2 3 1 9 -5 12 -13 3 -9 0
-12 -8 -9 -8 3 -17 0 -21 -6 -8 -14 47 -78 63 -72 7 2 11 -2 10 -9 -6 -24 54
-44 134 -44 78 0 104 9 78 25 -20 13 -30 12 -30 -1 0 -5 6 -7 13 -3 6 4 9 3 4
-1 -4 -5 -18 -10 -30 -12 -18 -2 -19 -1 -7 7 11 8 5 10 -25 8 -22 -1 -49 4
-60 10 -18 10 -17 11 10 8 48 -6 87 33 40 40 -7 1 -25 10 -39 21 -18 13 -23
24 -19 41 7 29 -15 29 -46 1 -15 -14 -20 -27 -15 -41 5 -17 3 -20 -10 -15 -9
4 -16 2 -16 -3 0 -6 6 -10 14 -10 16 0 49 47 41 59 -2 5 2 11 10 15 13 5 13 1
0 -31 -18 -43 -19 -53 -2 -33 7 8 19 16 27 18 8 2 2 -9 -12 -23 -22 -22 -33
-26 -58 -20 -25 5 -31 11 -28 28 3 23 -20 87 -31 86 -3 0 -15 -4 -26 -9z"/>
<path d="M1964 674 c12 -46 36 -74 60 -70 15 3 23 -1 23 -10 0 -9 -4 -11 -12
-4 -7 5 -15 7 -18 3 -4 -3 7 -16 23 -28 101 -74 283 -47 336 50 12 22 25 50
28 63 l7 22 -226 0 -227 0 6 -26z"/>
</g>
</svg>
