<svg id="Layer_1" enable-background="new 0 0 510 510" height="300" viewBox="0 0 510 510" width="300" xmlns="http://www.w3.org/2000/svg" version="1.1" xmlns:xlink="http://www.w3.org/1999/xlink" xmlns:svgjs="http://svgjs.dev/svgjs"><g width="100%" height="100%" transform="matrix(1,0,0,1,0,0)"><g id="XMLID_922_"><path id="XMLID_1106_" d="m210 510c-10.822 0-184.178 0-195 0 0-14.385 0-495.615 0-510h195l15 255z" fill="#f2f4f9" fill-opacity="1" data-original-color="#f2f4f9ff" stroke="none" stroke-opacity="1"/><path id="XMLID_841_" d="m390 510h-82.5-97.5c0-14.385 0-495.615 0-510h195v361.508c0 80.264-15 148.492-15 148.492z" fill="#dbf0f9" fill-opacity="1" data-original-color="#dbf0f9ff" stroke="none" stroke-opacity="1"/><path id="XMLID_914_" d="m495 450c-7.307 0-24.182 0-31.508 0l-13.492-15 13.492-15h31.508z" fill="#323233" fill-opacity="1" data-original-color="#323233ff" stroke="none" stroke-opacity="1"/><path id="XMLID_844_" d="m136.507 450c-7.343 0-24.214 0-31.507 0 0-10.492 0-19.508 0-30h31.507l13.493 15z" fill="#444444" fill-opacity="1" data-original-color="#444444ff" stroke="none" stroke-opacity="1"/><path id="XMLID_1100_" d="m75.028 120c0-53.23 64.532-80.292 102.397-42.426-7.419 7.419-13.793 13.794-21.213 21.213-18.836-18.834-51.199-5.412-51.199 21.213 0 26.869 32.5 39.911 51.199 21.213 7.42 7.419 13.794 13.794 21.213 21.213-37.355 37.356-102.397 11.396-102.397-42.426z" fill="#fc8e00" fill-opacity="1" data-original-color="#ff641aff" stroke="none" stroke-opacity="1"/><path id="XMLID_1095_" d="m150 270c-20.194 0-63.236 0-75 0 0-10.492 0-19.508 0-30h75z" fill="#ecab9f" fill-opacity="1" data-original-color="#2ee66bff" stroke="none" stroke-opacity="1"/><path id="XMLID_1090_" d="m210 270c-10.492 0-19.508 0-30 0 0-10.492 0-19.508 0-30h30l15 15z" fill="#78c4f8" fill-opacity="1" data-original-color="#78c4f8ff" stroke="none" stroke-opacity="1"/><g fill="#249ec5"><path id="XMLID_938_" d="m345 270c-16.333 0-118.559 0-135 0 0-10.492 0-19.508 0-30h135z" fill="#6ab1cd" fill-opacity="1" data-original-color="#249ec5ff" stroke="none" stroke-opacity="1"/><path id="XMLID_1085_" d="m345 210c-28.278 0-88.527 0-105 0 0-10.492 0-19.508 0-30h105z" fill="#6ab1cd" fill-opacity="1" data-original-color="#249ec5ff" stroke="none" stroke-opacity="1"/><path id="XMLID_1080_" d="m345 150c-28.278 0-88.527 0-105 0 0-10.492 0-19.508 0-30h105z" fill="#6ab1cd" fill-opacity="1" data-original-color="#249ec5ff" stroke="none" stroke-opacity="1"/><path id="XMLID_1064_" d="m345 90c-28.278 0-88.527 0-105 0 0-10.492 0-19.508 0-30h105z" fill="#6ab1cd" fill-opacity="1" data-original-color="#249ec5ff" stroke="none" stroke-opacity="1"/></g><path id="XMLID_1020_" d="m270 435 14.803 5.405c3.951-4.165 9.331-6.461 15.197-6.461l5.25-13.319-5.25-16.681c-6.996 0-13.787 1.421-20.02 4.075z" fill="#444444" fill-opacity="1" data-original-color="#444444ff" stroke="none" stroke-opacity="1"/><path id="XMLID_996_" d="m300 403.944v30c5.857 0 11.24 2.29 15.197 6.461l14.803-5.405-9.979-26.98c-6.233-2.654-13.025-4.076-20.021-4.076z" fill="#323233" fill-opacity="1" data-original-color="#323233ff" stroke="none" stroke-opacity="1"/><circle id="XMLID_1017_" cx="210" cy="435" fill="#5a5a5a" r="75" fill-opacity="1" data-original-color="#5a5a5aff" stroke="none" stroke-opacity="1"/><circle id="XMLID_1018_" cx="210" cy="435" fill="#78c4f8" r="45" fill-opacity="1" data-original-color="#78c4f8ff" stroke="none" stroke-opacity="1"/><circle id="XMLID_942_" cx="390" cy="435" fill="#444444" r="75" fill-opacity="1" data-original-color="#444444ff" stroke="none" stroke-opacity="1"/><circle id="XMLID_967_" cx="390" cy="435" fill="#6ab1cd" r="45" fill-opacity="1" data-original-color="#249ec5ff" stroke="none" stroke-opacity="1"/></g></g></svg>