<svg id="Economy_management" height="300" viewBox="0 0 64 64" width="300" xmlns="http://www.w3.org/2000/svg" data-name="Economy management" version="1.1" xmlns:xlink="http://www.w3.org/1999/xlink" xmlns:svgjs="http://svgjs.dev/svgjs"><g width="100%" height="100%" transform="matrix(1,0,0,1,0,0)"><path d="m29 35h-22v-24a8 8 0 0 1 8-8h6a8 8 0 0 1 8 8z" fill="#3e3d42" fill-opacity="1" data-original-color="#3e3d42ff" stroke="none" stroke-opacity="1"/><path d="m21 24.024v-6.024h-6v6.024a4 4 0 0 1 -2.851 3.831l-2.873.862a6 6 0 0 0 -4.276 5.747v7.536h26v-7.536a6 6 0 0 0 -4.276-5.747l-2.873-.862a4 4 0 0 1 -2.851-3.831z" fill="#6ab1cd" fill-opacity="1" data-original-color="#365e7dff" stroke="none" stroke-opacity="1"/><path d="m17.37 28.63-2.37 2.37-2 2-2.35-4.69 1.5-.45a3.971 3.971 0 0 0 1.89-1.24z" fill="#ffffff" fill-opacity="1" data-original-color="#ffffffff" stroke="none" stroke-opacity="1"/><path d="m25.35 28.31-2.35 4.69-2-2-.7-.7-1.67-1.67 3.33-2.01a3.971 3.971 0 0 0 1.89 1.24z" fill="#ffffff" fill-opacity="1" data-original-color="#ffffffff" stroke="none" stroke-opacity="1"/><path d="m18 29 .63-.37 1.67 1.67.7.7-1.74 2.32-1.26 1.68-1.26-1.68-1.74-2.32 2.37-2.37h.01z" fill="#ecab9f" fill-opacity="1" data-original-color="#9e2849ff" stroke="none" stroke-opacity="1"/><path d="m18 35 1.26-1.68 1.74 8.68h-6l1.74-8.68z" fill="#ecab9f" fill-opacity="1" data-original-color="#ec455aff" stroke="none" stroke-opacity="1"/><path d="m17.37 28.63-3.33-2.01a3.971 3.971 0 0 1 -1.89 1.24l-1.5.45 2.35 4.69 2-2z" fill="none" fill-opacity="1" stroke="none" stroke-opacity="1"/><path d="m18.63 28.63 1.67 1.67.7.7 2 2 2.35-4.69-1.5-.45a3.971 3.971 0 0 1 -1.89-1.24l-3.33 2.01-.63.37-.62-.37z" fill="none" fill-opacity="1" stroke="none" stroke-opacity="1"/><path d="m15 31 1.74 2.32z" fill="none" fill-opacity="1" stroke="none" stroke-opacity="1"/><path d="m16.74 33.32 1.26 1.68z" fill="none" fill-opacity="1" stroke="none" stroke-opacity="1"/><path d="m21 31-1.74 2.32-1.26 1.68z" fill="none" fill-opacity="1" stroke="none" stroke-opacity="1"/><path d="m19.26 33.32 1.74 8.68h-6l1.74-8.68z" fill="none" fill-opacity="1" stroke="none" stroke-opacity="1"/><path d="m14.04 26.62 1.09.66 2.24 1.35h.01l.62.37.63-.37 3.33-2.01a3.97 3.97 0 0 1 -.96-2.6v-6.02h-6v6.02a3.97 3.97 0 0 1 -.96 2.6z" fill="#ffcbbe" fill-opacity="1" data-original-color="#ffcbbeff" stroke="none" stroke-opacity="1"/><path d="m25 9h-8a2.006 2.006 0 0 1 -2-2h-2a2 2 0 0 0 -2 2v7.711a7.191 7.191 0 0 0 6.793 7.289 7 7 0 0 0 7.207-7z" fill="#ffddce" fill-opacity="1" data-original-color="#ffddceff" stroke="none" stroke-opacity="1"/><path d="m41 24h18v5h-18z" fill="#6c6c6c" fill-opacity="1" data-original-color="#ffda44ff" stroke="none" stroke-opacity="1"/><path d="m3 39h40v22h-40z" fill="#00ccb3" fill-opacity="1" data-original-color="#00ccb3ff" stroke="none" stroke-opacity="1"/><path d="m35 43h-24a4 4 0 0 1 -4 4v6a4 4 0 0 1 4 4h24a4 4 0 0 1 4-4v-6a4 4 0 0 1 -4-4z" fill="#c2fb3b" fill-opacity="1" data-original-color="#c2fb3bff" stroke="none" stroke-opacity="1"/><circle cx="23" cy="50" fill="#6c6c6c" r="7" fill-opacity="1" data-original-color="#ffda44ff" stroke="none" stroke-opacity="1"/><rect fill="#3e3d42" height="32" rx="1" width="26" x="35" y="29" fill-opacity="1" data-original-color="#3e3d42ff" stroke="none" stroke-opacity="1"/><path d="m39 32h18v5h-18z" fill="#6ab1cd" fill-opacity="1" data-original-color="#2488ffff" stroke="none" stroke-opacity="1"/><g fill="#e9e9ea"><path d="m39 40h4v4h-4z" fill="#e9e9ea" fill-opacity="1" data-original-color="#e9e9eaff" stroke="none" stroke-opacity="1"/><path d="m46 40h4v4h-4z" fill="#e9e9ea" fill-opacity="1" data-original-color="#e9e9eaff" stroke="none" stroke-opacity="1"/><path d="m53 40h4v4h-4z" fill="#e9e9ea" fill-opacity="1" data-original-color="#e9e9eaff" stroke="none" stroke-opacity="1"/><path d="m39 47h4v4h-4z" fill="#e9e9ea" fill-opacity="1" data-original-color="#e9e9eaff" stroke="none" stroke-opacity="1"/><path d="m46 47h4v4h-4z" fill="#e9e9ea" fill-opacity="1" data-original-color="#e9e9eaff" stroke="none" stroke-opacity="1"/><path d="m53 47h4v4h-4z" fill="#e9e9ea" fill-opacity="1" data-original-color="#e9e9eaff" stroke="none" stroke-opacity="1"/><path d="m39 54h4v4h-4z" fill="#e9e9ea" fill-opacity="1" data-original-color="#e9e9eaff" stroke="none" stroke-opacity="1"/><path d="m46 54h4v4h-4z" fill="#e9e9ea" fill-opacity="1" data-original-color="#e9e9eaff" stroke="none" stroke-opacity="1"/></g><path d="m53 54h4v4h-4z" fill="#ff5023" fill-opacity="1" data-original-color="#ff5023ff" stroke="none" stroke-opacity="1"/><circle cx="50" cy="15" fill="#6c6c6c" r="9" fill-opacity="1" data-original-color="#ffda44ff" stroke="none" stroke-opacity="1"/><path d="m15 12a1 1 0 0 0 -1 1v1a1 1 0 0 0 2 0v-1a1 1 0 0 0 -1-1z" fill="#3e3d42" fill-opacity="1" data-original-color="#3e3d42ff" stroke="none" stroke-opacity="1"/><path d="m21 12a1 1 0 0 0 -1 1v1a1 1 0 0 0 2 0v-1a1 1 0 0 0 -1-1z" fill="#3e3d42" fill-opacity="1" data-original-color="#3e3d42ff" stroke="none" stroke-opacity="1"/><path d="m53 13v-1a1 1 0 0 0 -1-1h-4a1 1 0 0 0 -1 1v1a1 1 0 0 0 1 1h4a3.009 3.009 0 0 1 3 3v1a3.009 3.009 0 0 1 -3 3h-1v1h-2v-1h-1a3.009 3.009 0 0 1 -3-3h2a1 1 0 0 0 1 1h4a1 1 0 0 0 1-1v-1a1 1 0 0 0 -1-1h-4a3.009 3.009 0 0 1 -3-3v-1a3.009 3.009 0 0 1 3-3h1v-1h2v1h1a3.009 3.009 0 0 1 3 3v1z" fill="#6ab1cd" fill-opacity="1" data-original-color="#ff9811ff" stroke="none" stroke-opacity="1"/><path d="m27.74 38.89-.04.11h-2.1l.25-.74a3.015 3.015 0 0 0 -.17-2.3l-1.26-2.51 1.79-.9 1.26 2.52a4.929 4.929 0 0 1 .27 3.82z" fill="#2b4b64" fill-opacity="1" data-original-color="#2b4b64ff" stroke="none" stroke-opacity="1"/><path d="m8.62 39-.04-.11a4.929 4.929 0 0 1 .27-3.82l1.26-2.52 1.78.9-1.25 2.52a2.987 2.987 0 0 0 -.17 2.29l.25.74z" fill="#2b4b64" fill-opacity="1" data-original-color="#2b4b64ff" stroke="none" stroke-opacity="1"/></g></svg>