<svg version="1.1" id="Capa_1" xmlns="http://www.w3.org/2000/svg" xmlns:xlink="http://www.w3.org/1999/xlink" x="0px" y="0px" viewBox="0 0 512 512" style="enable-background:new 0 0 512 512;" xml:space="preserve" width="300" height="300" xmlns:svgjs="http://svgjs.dev/svgjs"><g width="100%" height="100%" transform="matrix(1,0,0,1,0,0)"><path style="" d="M512,338.401L419.001,476c-16.8,22.5-43.801,36-87.001,36H92l-30-15L15,342.299L30,330h26.3&#10;&#9;c9.6,0,18.9-3.6,26.4-9.901c19.501-17.399,44.099-25.8,68.699-25.8c34.501,0,54.901,12.599,77.1,32.1c2.701,2.1,6.901,3.6,9.901,3.6&#10;&#9;H362v60H227v30c0,0,29.399,0,60,0h69.901c5.7,0,16.5-3.6,22.2-9.6L466.099,300L512,338.401z" fill="#fedbab" fill-opacity="1" data-original-color="#fedbabff" stroke="none" stroke-opacity="1"/><g>
	<rect x="287" y="330" style="" width="75" height="60" fill="#fec478" fill-opacity="1" data-original-color="#fec478ff" stroke="none" stroke-opacity="1"/>
	<path style="" d="M512,338.401L419.001,476c-16.8,22.5-43.801,36-87.001,36h-45v-92h69.901c5.7,0,16.5-3.6,22.2-9.6&#10;&#9;&#9;L466.099,300L512,338.401z" fill="#fec478" fill-opacity="1" data-original-color="#fec478ff" stroke="none" stroke-opacity="1"/>
</g><path style="" d="M92,512H0V300h92V512z" fill="#6ab1cd" fill-opacity="1" data-original-color="#1689fcff" stroke="none" stroke-opacity="1"/><rect x="216.88" y="147.033" transform="matrix(-0.7866 -0.6175 0.6175 -0.7866 306.9602 453.6295)" style="" width="29.985" height="53.471" fill="#2b292c" fill-opacity="1" data-original-color="#2b292cff" stroke="none" stroke-opacity="1"/><path style="" d="M261.746,196.67L276.189,240h51.621l14.458-43.33C351.556,168.75,377.571,150,407,150l-105-30&#10;&#9;l-105,30C226.429,150,252.444,168.75,261.746,196.67z" fill="#3c3a41" fill-opacity="1" data-original-color="#3c3a41ff" stroke="none" stroke-opacity="1"/><path style="" d="M272,60H122v15c0,16.948,5.865,32.426,15.383,45c13.705,18.104,35.213,30,59.617,30h75l30-30V90&#10;&#9;L272,60z" fill="#57555c" fill-opacity="1" data-original-color="#57555cff" stroke="none" stroke-opacity="1"/><path style="" d="M482,150h-45c-24.814,0-45-20.186-45-45s20.186-45,45-45h45V150z" fill="#ffb025" fill-opacity="1" data-original-color="#fcbf29ff" stroke="none" stroke-opacity="1"/><rect x="272" y="60" style="" width="150" height="90" fill="#ecab9f" fill-opacity="1" data-original-color="#fd3018ff" stroke="none" stroke-opacity="1"/><path style="" d="M422,180h-30V45c0-8.276-6.724-15-15-15h-30V0h30c24.814,0,45,20.186,45,45V180z" fill="#3c3a41" fill-opacity="1" data-original-color="#3c3a41ff" stroke="none" stroke-opacity="1"/><path style="" d="M182,165c-32.999,0-60,26.999-60,60c0,32.999,27.001,60,60,60s60-27.001,60-60&#10;&#9;C242,191.999,214.999,165,182,165z" fill="#57555c" fill-opacity="1" data-original-color="#57555cff" stroke="none" stroke-opacity="1"/><path style="" d="M242,225c0,32.999-27.001,60-60,60V165C214.999,165,242,191.999,242,225z" fill="#3c3a41" fill-opacity="1" data-original-color="#3c3a41ff" stroke="none" stroke-opacity="1"/><path style="" d="M182,195c-16.5,0-30,13.5-30,30s13.5,30,30,30s30-13.5,30-30S198.5,195,182,195z" fill="#efe6de" fill-opacity="1" data-original-color="#efe6deff" stroke="none" stroke-opacity="1"/><path style="" d="M212,225c0,16.5-13.5,30-30,30v-60C198.5,195,212,208.5,212,225z" fill="#dfccbf" fill-opacity="1" data-original-color="#dfccbfff" stroke="none" stroke-opacity="1"/><path style="" d="M422,165c-32.999,0-60,26.999-60,60c0,32.999,27.001,60,60,60s60-27.001,60-60&#10;&#9;C482,191.999,454.999,165,422,165z" fill="#57555c" fill-opacity="1" data-original-color="#57555cff" stroke="none" stroke-opacity="1"/><path style="" d="M482,225c0,32.999-27.001,60-60,60V165C454.999,165,482,191.999,482,225z" fill="#3c3a41" fill-opacity="1" data-original-color="#3c3a41ff" stroke="none" stroke-opacity="1"/><path style="" d="M422,195c-16.5,0-30,13.5-30,30s13.5,30,30,30s30-13.5,30-30S438.5,195,422,195z" fill="#efe6de" fill-opacity="1" data-original-color="#efe6deff" stroke="none" stroke-opacity="1"/><path style="" d="M452,225c0,16.5-13.5,30-30,30v-60C438.5,195,452,208.5,452,225z" fill="#dfccbf" fill-opacity="1" data-original-color="#dfccbfff" stroke="none" stroke-opacity="1"/><g>
</g><g>
</g><g>
</g><g>
</g><g>
</g><g>
</g><g>
</g><g>
</g><g>
</g><g>
</g><g>
</g><g>
</g><g>
</g><g>
</g><g>
</g></g></svg>