<svg id="Capa_1" enable-background="new 0 0 512 512" height="300" viewBox="0 0 512 512" width="300" xmlns="http://www.w3.org/2000/svg" version="1.1" xmlns:xlink="http://www.w3.org/1999/xlink" xmlns:svgjs="http://svgjs.dev/svgjs"><g width="100%" height="100%" transform="matrix(1,0,0,1,0,0)"><g><g><g><path d="m297.925 412.278h-41.926-41.926s1.023 56.242-9.203 92.032h51.129 51.129c-10.226-35.79-9.203-92.032-9.203-92.032z" fill="#cdbfba" fill-opacity="1" data-original-color="#cdbfbaff" stroke="none" stroke-opacity="1"/></g><g><path d="m307.128 504.308h-21.229c-10.226-35.79-9.203-92.032-9.203-92.032h21.229s-1.023 56.242 9.203 92.032z" fill="#b9acac" fill-opacity="1" data-original-color="#b9acacff" stroke="none" stroke-opacity="1"/></g><g><path d="m351.099 512h-190.2c-4.247 0-7.69-3.442-7.69-7.69 0-4.247 3.443-7.69 7.69-7.69h190.199c4.247 0 7.69 3.442 7.69 7.69s-3.442 7.69-7.689 7.69z" fill="#766e6e" fill-opacity="1" data-original-color="#766e6eff" stroke="none" stroke-opacity="1"/></g><g><g><path d="m473.276 417.53h-434.554c-15.366 0-27.822-12.456-27.822-27.822v-281.806c0-15.366 12.456-27.822 27.822-27.822h434.555c15.366 0 27.822 12.456 27.822 27.822v281.806c0 15.366-12.457 27.822-27.823 27.822z" fill="#6ab1cd" fill-opacity="1" data-original-color="#eaf6ffff" stroke="none" stroke-opacity="1"/></g><g><path d="m501.101 107.903v281.802c0 15.369-12.455 27.824-27.824 27.824h-20.452c15.369 0 27.824-12.455 27.824-27.824v-281.802c0-15.369-12.455-27.824-27.824-27.824h20.452c15.369-.001 27.824 12.455 27.824 27.824z" fill="#6ab1cd" fill-opacity="1" data-original-color="#d8ecfeff" stroke="none" stroke-opacity="1"/></g></g><g><g><path d="m437.485 352.621h-362.972v-345.384c0-3.997 3.24-7.237 7.237-7.237h348.497c3.997 0 7.237 3.24 7.237 7.237v345.384z" fill="#faf7f7" fill-opacity="1" data-original-color="#faf7f7ff" stroke="none" stroke-opacity="1"/></g><g><path d="m437.485 7.24v345.385h-20.452v-345.385c0-3.998-3.242-7.24-7.24-7.24h20.452c3.998 0 7.24 3.242 7.24 7.24z" fill="#f3eae6" fill-opacity="1" data-original-color="#f3eae6ff" stroke="none" stroke-opacity="1"/></g></g><g><g><g><path d="m392.763 239.414h-108.583c-4.247 0-7.69-3.442-7.69-7.69 0-4.247 3.442-7.69 7.69-7.69h108.583c4.247 0 7.69 3.442 7.69 7.69 0 4.247-3.443 7.69-7.69 7.69z" fill="#cdbfba" fill-opacity="1" data-original-color="#cdbfbaff" stroke="none" stroke-opacity="1"/></g><g><path d="m392.763 275.458h-108.583c-4.247 0-7.69-3.442-7.69-7.69s3.442-7.69 7.69-7.69h108.583c4.247 0 7.69 3.442 7.69 7.69s-3.443 7.69-7.69 7.69z" fill="#cdbfba" fill-opacity="1" data-original-color="#cdbfbaff" stroke="none" stroke-opacity="1"/></g><g><path d="m392.763 311.502h-108.583c-4.247 0-7.69-3.442-7.69-7.69 0-4.247 3.442-7.69 7.69-7.69h108.583c4.247 0 7.69 3.442 7.69 7.69 0 4.247-3.443 7.69-7.69 7.69z" fill="#cdbfba" fill-opacity="1" data-original-color="#cdbfbaff" stroke="none" stroke-opacity="1"/></g><g><path d="m237.71 303.812h-113.502c-2.747 0-4.973-2.227-4.973-4.973v-62.141c0-2.747 2.227-4.973 4.973-4.973h113.502c2.747 0 4.973 2.227 4.973 4.973v62.141c0 2.746-2.226 4.973-4.973 4.973z" fill="#ffb025" fill-opacity="1" data-original-color="#b3dafeff" stroke="none" stroke-opacity="1"/></g><g><path d="m242.687 236.694v62.142c0 2.751-2.229 4.98-4.98 4.98h-20.452c2.751 0 4.98-2.229 4.98-4.98v-62.142c0-2.741-2.229-4.97-4.98-4.97h20.452c2.751 0 4.98 2.23 4.98 4.97z" fill="#8ac9fe" fill-opacity="1" data-original-color="#8ac9feff" stroke="none" stroke-opacity="1"/></g></g><g><g><path d="m255.997 48.81c-62.905.883-107.018 48.22-117.959 61.22-1.605 1.907-1.605 4.637 0 6.544 10.941 13 55.054 60.337 117.959 61.22 62.905-.883 107.018-48.22 117.959-61.22 1.605-1.907 1.605-4.637 0-6.544-10.941-13-55.054-60.337-117.959-61.22z" fill="#6ab1cd" fill-opacity="1" data-original-color="#eaf6ffff" stroke="none" stroke-opacity="1"/></g><g><path d="m373.958 116.576c-10.939 12.992-55.053 60.333-117.96 61.213-4.465-.065-8.832-.358-13.101-.869 55.901-6.55 94.692-48.275 104.86-60.343 1.608-1.912 1.608-4.638 0-6.55-10.168-12.069-48.959-53.793-104.86-60.344 4.269-.511 8.636-.804 13.101-.869 62.907.88 107.021 48.22 117.96 61.213 1.607 1.91 1.607 4.637 0 6.549z" fill="#6ab1cd" fill-opacity="1" data-original-color="#d8ecfeff" stroke="none" stroke-opacity="1"/></g><g><circle cx="255.997" cy="113.301" fill="#7c4b37" r="64.492" fill-opacity="1" data-original-color="#7c4b37ff" stroke="none" stroke-opacity="1"/></g><g><path d="m320.49 113.306c0 35.609-28.874 64.482-64.493 64.482-16.077 0-30.764-5.866-42.05-15.599 7.007 2.607 14.578 4.03 22.497 4.03 35.62 0 64.493-28.874 64.493-64.493 0-19.542-8.69-37.053-22.421-48.872 24.518 9.136 41.974 32.752 41.974 60.452z" fill="#683a2a" fill-opacity="1" data-original-color="#683a2aff" stroke="none" stroke-opacity="1"/></g><g><circle cx="282.781" cy="86.515" fill="#edd9d3" r="26.784" fill-opacity="1" data-original-color="#edd9d3ff" stroke="none" stroke-opacity="1"/></g><g><path d="m309.562 86.513c0 14.795-11.993 26.788-26.777 26.788-11.536 0-21.367-7.289-25.137-17.522 2.976 1.151 6.203 1.771 9.57 1.771 14.795 0 26.788-11.982 26.788-26.777 0-3.259-.587-6.377-1.651-9.266 10.059 3.845 17.207 13.589 17.207 25.006z" fill="#e5c7be" fill-opacity="1" data-original-color="#e5c7beff" stroke="none" stroke-opacity="1"/></g></g></g></g><g><path d="m473.276 417.53h-434.554c-15.366 0-27.822-12.456-27.822-27.822v-37.087h490.199v37.087c0 15.366-12.457 27.822-27.823 27.822z" fill="#766e6e" fill-opacity="1" data-original-color="#766e6eff" stroke="none" stroke-opacity="1"/></g><g><path d="m501.101 352.626v37.079c0 15.369-12.455 27.824-27.824 27.824h-20.452c15.369 0 27.824-12.455 27.824-27.824v-37.079z" fill="#5b5555" fill-opacity="1" data-original-color="#5b5555ff" stroke="none" stroke-opacity="1"/></g></g></g></svg>