<svg id="Layer_1" enable-background="new 0 0 512.164 512.164" height="300" viewBox="0 0 512.164 512.164" width="300" xmlns="http://www.w3.org/2000/svg" version="1.1" xmlns:xlink="http://www.w3.org/1999/xlink" xmlns:svgjs="http://svgjs.dev/svgjs"><g width="100%" height="100%" transform="matrix(1,0,0,1,0,0)"><g><path d="m10.352 200.474h124.288v30h-124.288z" fill="#fff5f5" transform="matrix(.924 -.383 .383 .924 -76.939 44.144)" fill-opacity="1" data-original-color="#fff5f5ff" stroke="none" stroke-opacity="1" style=""/><path d="m110.342 113.732h150.001v110.001h-150.001z" fill="#ffe666" transform="matrix(.924 -.383 .383 .924 -50.463 83.772)" fill-opacity="1" data-original-color="#ffe666ff" stroke="none" stroke-opacity="1" style=""/><path d="m140.342 143.732h90v50h-90z" fill="#ffb366" transform="matrix(.924 -.383 .383 .924 -50.464 83.775)" fill-opacity="1" data-original-color="#ffb366ff" stroke="none" stroke-opacity="1" style=""/><path d="m256.082 331.662-10 16.002 10 13.998c13.785 0 25 11.215 25 25h30c0-30.327-24.673-55-55-55z" fill="#6ab1cd" fill-opacity="1" data-original-color="#2ee66bff" stroke="none" stroke-opacity="1"/><path d="m201.082 386.662h30c0-13.785 11.215-25 25-25v-30c-30.327 0-55 24.673-55 55z" fill="#ecab9f" fill-opacity="1" data-original-color="#66ff99ff" stroke="none" stroke-opacity="1" style=""/><path d="m30.082 381.164h-30v-346.56l96.62-34.604 10.115 28.244-76.735 27.481z" fill="#ecab9f" fill-opacity="1" data-original-color="#66ff99ff" stroke="none" stroke-opacity="1" style=""/><path d="m512.082 386.662h-30v-330.937l-76.735-27.481 10.115-28.244 96.62 34.604z" fill="#6ab1cd" fill-opacity="1" data-original-color="#2ee66bff" stroke="none" stroke-opacity="1"/><path d="m115.582 512.164c-38.58 0-70.267-17.063-91.634-49.345-17.616-26.613-23.866-57.658-23.866-76.157 0-21.414 13.188-42.387 36.182-57.54 21.76-14.34 49.929-22.237 79.318-22.237s57.559 7.897 79.318 22.237c22.994 15.153 36.182 36.126 36.182 57.54 0 18.499-6.25 49.544-23.866 76.157-21.367 32.282-53.054 49.345-91.634 49.345z" fill="#6ab1cd" fill-opacity="1" data-original-color="#2ee66bff" stroke="none" stroke-opacity="1"/><path d="m115.582 336.885c-48.936 0-85.5 26.28-85.5 49.777 0 15.466 5.839 39.892 18.883 59.599 15.769 23.823 38.183 35.903 66.617 35.903s50.849-12.08 66.617-35.903c13.044-19.707 18.883-44.133 18.883-59.599 0-23.497-36.564-49.777-85.5-49.777z" fill="#ffffff" fill-opacity="1" data-original-color="#4d4d8cff" stroke="none" stroke-opacity="1" style=""/><path d="m396.582 512.164c-38.58 0-70.267-17.063-91.634-49.345-17.616-26.613-23.866-57.658-23.866-76.157 0-21.414 13.188-42.387 36.182-57.54 21.76-14.34 49.929-22.237 79.318-22.237s57.559 7.897 79.318 22.237c22.994 15.153 36.182 36.126 36.182 57.54 0 18.499-6.25 49.544-23.866 76.157-21.367 32.282-53.054 49.345-91.634 49.345z" fill="#ecab9f" fill-opacity="1" data-original-color="#24b383ff" stroke="none" stroke-opacity="1" style=""/><path d="m396.582 336.885c-48.936 0-85.5 26.28-85.5 49.777 0 15.466 5.839 39.892 18.883 59.599 15.769 23.823 38.183 35.903 66.617 35.903s50.849-12.08 66.617-35.903c13.044-19.707 18.883-44.133 18.883-59.599 0-23.497-36.564-49.777-85.5-49.777z" fill="#fffafa" fill-opacity="1" data-original-color="#283366ff" stroke="none" stroke-opacity="1" style=""/></g></g></svg>