<svg id="Capa_1" enable-background="new 0 0 512 512" height="300" viewBox="0 0 512 512" width="300" xmlns="http://www.w3.org/2000/svg" version="1.1" xmlns:xlink="http://www.w3.org/1999/xlink" xmlns:svgjs="http://svgjs.dev/svgjs"><g width="100%" height="100%" transform="matrix(1,0,0,1,0,0)"><g><path d="m411.042 467.187h-390.438c-11.379 0-20.604-9.224-20.604-20.604v-327.597h431.646v327.598c0 11.379-9.225 20.603-20.604 20.603z" fill="#6ab1cd" fill-opacity="1" data-original-color="#bfbfbfff" stroke="none" stroke-opacity="1"/><path d="m431.646 139.59v306.994c0 11.383-9.22 20.604-20.604 20.604h-30.905c11.384 0 20.604-9.22 20.604-20.604v-306.994z" fill="#6ab1cd" fill-opacity="1" data-original-color="#aaaaaaff" stroke="none" stroke-opacity="1"/><path d="m431.646 139.59h-431.646v-47.389c0-10.81 8.763-19.573 19.573-19.573h392.499c10.81 0 19.573 8.763 19.573 19.573v47.389z" fill="#bbeaff" fill-opacity="1" data-original-color="#bbeaffff" stroke="none" stroke-opacity="1"/><path d="m431.646 92.201v47.388h-30.906v-47.388c0-10.807-8.767-19.573-19.573-19.573h30.905c10.807 0 19.574 8.767 19.574 19.573z" fill="#84d2f4" fill-opacity="1" data-original-color="#84d2f4ff" stroke="none" stroke-opacity="1"/><path d="m400.74 385.803v45.328c0 2.845-2.306 5.151-5.151 5.151h-359.533c-2.845 0-5.151-2.306-5.151-5.151v-45.328z" fill="#6c6c6c" fill-opacity="1" data-original-color="#d6d6d6ff" stroke="none" stroke-opacity="1"/><path d="m395.59 406.406h-359.534c-2.845 0-5.151-2.306-5.151-5.151v-261.665h369.835v261.666c0 2.844-2.306 5.15-5.15 5.15z" fill="#ffffff" fill-opacity="1" data-original-color="#ffffffff" stroke="none" stroke-opacity="1"/><path d="m99.928 114.35c-7.101 0-12.877-5.777-12.877-12.877 0-7.101 5.777-12.877 12.877-12.877s12.877 5.777 12.877 12.877-5.777 12.877-12.877 12.877z" fill="#ffffff" fill-opacity="1" data-original-color="#ffffffff" stroke="none" stroke-opacity="1"/><path d="m146.286 114.35c-7.101 0-12.877-5.777-12.877-12.877 0-7.101 5.777-12.877 12.877-12.877 7.101 0 12.877 5.777 12.877 12.877s-5.777 12.877-12.877 12.877z" fill="#ffffff" fill-opacity="1" data-original-color="#ffffffff" stroke="none" stroke-opacity="1"/><path d="m192.644 114.35c-7.101 0-12.877-5.777-12.877-12.877 0-7.101 5.777-12.877 12.877-12.877s12.877 5.777 12.877 12.877-5.777 12.877-12.877 12.877z" fill="#ffffff" fill-opacity="1" data-original-color="#ffffffff" stroke="none" stroke-opacity="1"/><path d="m239.002 114.35c-7.101 0-12.877-5.777-12.877-12.877 0-7.101 5.777-12.877 12.877-12.877s12.877 5.777 12.877 12.877-5.776 12.877-12.877 12.877z" fill="#ffffff" fill-opacity="1" data-original-color="#ffffffff" stroke="none" stroke-opacity="1"/><path d="m285.36 114.35c-7.101 0-12.877-5.777-12.877-12.877 0-7.101 5.777-12.877 12.877-12.877 7.101 0 12.877 5.777 12.877 12.877s-5.776 12.877-12.877 12.877z" fill="#ffffff" fill-opacity="1" data-original-color="#ffffffff" stroke="none" stroke-opacity="1"/><path d="m331.718 114.35c-7.101 0-12.877-5.777-12.877-12.877 0-7.101 5.777-12.877 12.877-12.877 7.101 0 12.877 5.777 12.877 12.877.001 7.1-5.776 12.877-12.877 12.877z" fill="#ffffff" fill-opacity="1" data-original-color="#ffffffff" stroke="none" stroke-opacity="1"/><path d="m378.076 114.35c-7.101 0-12.877-5.777-12.877-12.877 0-7.101 5.777-12.877 12.877-12.877 7.101 0 12.877 5.777 12.877 12.877.001 7.1-5.776 12.877-12.877 12.877z" fill="#ffffff" fill-opacity="1" data-original-color="#ffffffff" stroke="none" stroke-opacity="1"/><path d="m53.569 114.35c-7.101 0-12.877-5.777-12.877-12.877 0-7.101 5.777-12.877 12.877-12.877s12.877 5.777 12.877 12.877c.001 7.1-5.776 12.877-12.877 12.877z" fill="#ffffff" fill-opacity="1" data-original-color="#ffffffff" stroke="none" stroke-opacity="1"/><g fill="#d6d6d6"><path d="m252.909 193.674h-176.161c-4.268 0-7.726-3.459-7.726-7.726s3.459-7.726 7.726-7.726h176.161c4.268 0 7.726 3.459 7.726 7.726.001 4.267-3.458 7.726-7.726 7.726z" fill="#6c6c6c" fill-opacity="1" data-original-color="#d6d6d6ff" stroke="none" stroke-opacity="1"/><path d="m252.909 224.579h-176.161c-4.268 0-7.726-3.459-7.726-7.726s3.459-7.726 7.726-7.726h176.161c4.268 0 7.726 3.459 7.726 7.726s-3.458 7.726-7.726 7.726z" fill="#6c6c6c" fill-opacity="1" data-original-color="#d6d6d6ff" stroke="none" stroke-opacity="1"/><path d="m252.909 255.485h-176.161c-4.268 0-7.726-3.459-7.726-7.726s3.459-7.726 7.726-7.726h176.161c4.268 0 7.726 3.459 7.726 7.726.001 4.267-3.458 7.726-7.726 7.726z" fill="#6c6c6c" fill-opacity="1" data-original-color="#d6d6d6ff" stroke="none" stroke-opacity="1"/><path d="m99.928 105.594c-4.268 0-7.726-3.459-7.726-7.726v-45.329c0-4.267 3.459-7.726 7.726-7.726 4.268 0 7.726 3.459 7.726 7.726v45.328c0 4.267-3.459 7.727-7.726 7.727z" fill="#6c6c6c" fill-opacity="1" data-original-color="#d6d6d6ff" stroke="none" stroke-opacity="1"/><path d="m146.286 105.594c-4.268 0-7.726-3.459-7.726-7.726v-45.329c0-4.267 3.459-7.726 7.726-7.726 4.268 0 7.726 3.459 7.726 7.726v45.328c0 4.267-3.459 7.727-7.726 7.727z" fill="#6c6c6c" fill-opacity="1" data-original-color="#d6d6d6ff" stroke="none" stroke-opacity="1"/><path d="m192.644 105.594c-4.268 0-7.726-3.459-7.726-7.726v-45.329c0-4.267 3.459-7.726 7.726-7.726s7.726 3.459 7.726 7.726v45.328c0 4.267-3.459 7.727-7.726 7.727z" fill="#6c6c6c" fill-opacity="1" data-original-color="#d6d6d6ff" stroke="none" stroke-opacity="1"/><path d="m239.002 105.594c-4.268 0-7.726-3.459-7.726-7.726v-45.329c0-4.267 3.459-7.726 7.726-7.726s7.726 3.459 7.726 7.726v45.328c0 4.267-3.458 7.727-7.726 7.727z" fill="#6c6c6c" fill-opacity="1" data-original-color="#d6d6d6ff" stroke="none" stroke-opacity="1"/><path d="m285.36 105.594c-4.268 0-7.726-3.459-7.726-7.726v-45.329c0-4.267 3.459-7.726 7.726-7.726s7.726 3.459 7.726 7.726v45.328c.001 4.267-3.458 7.727-7.726 7.727z" fill="#6c6c6c" fill-opacity="1" data-original-color="#d6d6d6ff" stroke="none" stroke-opacity="1"/><path d="m331.718 105.594c-4.268 0-7.726-3.459-7.726-7.726v-45.329c0-4.267 3.459-7.726 7.726-7.726 4.268 0 7.726 3.459 7.726 7.726v45.328c.001 4.267-3.458 7.727-7.726 7.727z" fill="#6c6c6c" fill-opacity="1" data-original-color="#d6d6d6ff" stroke="none" stroke-opacity="1"/><path d="m378.076 105.594c-4.268 0-7.726-3.459-7.726-7.726v-45.329c0-4.267 3.459-7.726 7.726-7.726s7.726 3.459 7.726 7.726v45.328c.001 4.267-3.458 7.727-7.726 7.727z" fill="#6c6c6c" fill-opacity="1" data-original-color="#d6d6d6ff" stroke="none" stroke-opacity="1"/><path d="m53.569 105.594c-4.268 0-7.726-3.459-7.726-7.726v-45.329c0-4.267 3.459-7.726 7.726-7.726s7.726 3.459 7.726 7.726v45.328c.001 4.267-3.458 7.727-7.726 7.727z" fill="#6c6c6c" fill-opacity="1" data-original-color="#d6d6d6ff" stroke="none" stroke-opacity="1"/></g><path d="m344.08 247.759h-48.419c-5.69 0-10.302-4.612-10.302-10.302v-41.207c0-5.69 4.612-10.302 10.302-10.302h48.419c5.69 0 10.302 4.612 10.302 10.302v41.207c0 5.689-4.612 10.302-10.302 10.302z" fill="#ecab9f" fill-opacity="1" data-original-color="#9fe2b7ff" stroke="none" stroke-opacity="1"/><path d="m323.477 373.059v-.649c0-4.976-2.019-9.488-5.285-12.743-3.266-3.266-7.767-5.285-12.743-5.285-9.951 0-18.028 8.077-18.028 18.028v.649h-30.905c0-27.022 21.912-48.934 48.934-48.934 13.516 0 25.744 5.481 34.604 14.33 8.849 8.86 14.33 21.088 14.33 34.604z" fill="#6ab1cd" fill-opacity="1" data-original-color="#9494f7ff" stroke="none" stroke-opacity="1"/><path d="m417.739 467.187c-52.059 0-94.262-42.202-94.262-94.261 0-52.059 42.202-94.261 94.261-94.261 52.059 0 94.261 42.202 94.261 94.261.001 52.059-42.201 94.261-94.26 94.261z" fill="#000000" fill-opacity="1" data-original-color="#aeaeffff" stroke="none" stroke-opacity="1"/><path d="m417.738 436.282c-34.991 0-63.356-28.365-63.356-63.356 0-34.991 28.365-63.356 63.356-63.356 34.991 0 63.356 28.365 63.356 63.356.001 34.99-28.365 63.356-63.356 63.356z" fill="#ffffff" fill-opacity="1" data-original-color="#ffffffff" stroke="none" stroke-opacity="1"/><path d="m481.095 372.926c0 17.503-7.088 33.337-18.554 44.803s-27.31 18.554-44.803 18.554c-5.326 0-10.508-.659-15.453-1.906 11.291-2.823 21.376-8.674 29.35-16.648 11.466-11.466 18.554-27.3 18.554-44.803s-7.088-33.337-18.554-44.803c-7.974-7.974-18.059-13.825-29.35-16.648 4.945-1.246 10.127-1.906 15.453-1.906 17.492 0 33.337 7.088 44.803 18.554s18.554 27.3 18.554 44.803z" fill="#ededed" fill-opacity="1" data-original-color="#edededff" stroke="none" stroke-opacity="1"/><path d="m193.159 467.187c-52.059 0-94.262-42.202-94.262-94.261 0-52.059 42.202-94.261 94.261-94.261 52.059 0 94.261 42.202 94.261 94.261.002 52.059-42.201 94.261-94.26 94.261z" fill="#000000" fill-opacity="1" data-original-color="#aeaeffff" stroke="none" stroke-opacity="1"/><path d="m193.159 436.282c-34.991 0-63.356-28.365-63.356-63.356 0-34.991 28.365-63.356 63.356-63.356 34.991 0 63.356 28.365 63.356 63.356 0 34.99-28.365 63.356-63.356 63.356z" fill="#ffffff" fill-opacity="1" data-original-color="#ffffffff" stroke="none" stroke-opacity="1"/><path d="m256.515 372.926c0 17.503-7.088 33.337-18.554 44.803s-27.31 18.554-44.803 18.554c-5.326 0-10.508-.659-15.453-1.906 11.291-2.823 21.376-8.674 29.35-16.648 11.466-11.466 18.554-27.3 18.554-44.803s-7.088-33.337-18.554-44.803c-7.974-7.974-18.059-13.825-29.35-16.648 4.945-1.246 10.127-1.906 15.453-1.906 17.492 0 33.337 7.088 44.803 18.554s18.554 27.3 18.554 44.803z" fill="#ededed" fill-opacity="1" data-original-color="#edededff" stroke="none" stroke-opacity="1"/></g></g></svg>