<svg id="Layer_1" height="300" viewBox="0 0 512 512" width="300" xmlns="http://www.w3.org/2000/svg" version="1.1" xmlns:xlink="http://www.w3.org/1999/xlink" xmlns:svgjs="http://svgjs.dev/svgjs"><g width="100%" height="100%" transform="matrix(1,0,0,1,0,0)"><g><g><g><g><path d="m192 32c-53.019 0-96 42.981-96 96v160 32h112v-32h64c26.51 0 48-21.49 48-48v-112c0-53.019-42.981-96-96-96z" fill="#fab991" fill-opacity="1" data-original-color="#fab991ff" stroke="none" stroke-opacity="1" style=""/></g></g></g><g><g><g><path d="m296 16h-104c-61.856 0-112 50.144-112 112v112c0 17.673 14.327 32 32 32h32c17.673 0 32-14.327 32-32v-48c17.673 0 32-14.327 32-32v-32c0-17.673 14.327-32 32-32h56c22.091 0 40-17.909 40-40 0-22.091-17.909-40-40-40z" fill="#d7e6f0" fill-opacity="1" data-original-color="#d7e6f0ff" stroke="none" stroke-opacity="1" style=""/></g></g></g><g><g><g><path d="m176 152c-13.255 0-24 10.745-24 24h8c0-8.837 7.164-16 16-16h37.333v-8z" fill="#555a6e" fill-opacity="1" data-original-color="#555a6eff" stroke="none" stroke-opacity="1" style=""/></g></g></g><g><g><g><path d="m176 160v80c-22.091 0-40-17.909-40-40s17.909-40 40-40z" fill="#f0915a" fill-opacity="1" data-original-color="#f0915aff" stroke="none" stroke-opacity="1" style=""/></g></g></g><g><g><g><path d="m296 192c-17.645 0-32-14.355-32-32s14.355-32 31.999-32c17.645 0 32 14.355 32 32s-14.354 32-31.999 32zm0-56c-13.234 0-24 10.766-24 24s10.766 24 23.999 24c13.234 0 24-10.766 24-24s-10.765-24-23.999-24z" fill="#555a6e" fill-opacity="1" data-original-color="#555a6eff" stroke="none" stroke-opacity="1" style=""/></g></g></g><g><g><g><path d="m282.667 224c-8.837 0-16-7.163-16-16v-34.667c17.673 0 32 14.327 32 32v2.667c0 8.837-7.164 16-16 16z" fill="#f0915a" fill-opacity="1" data-original-color="#f0915aff" stroke="none" stroke-opacity="1" style=""/></g></g></g><g><g><g><path d="m296 240h-32c0 8.837 7.163 16 16 16 8.837 0 16-7.163 16-16z" fill="#463c4b" fill-opacity="1" data-original-color="#463c4bff" stroke="none" stroke-opacity="1" style=""/></g></g></g><g><g><g><path d="m272 320h-176c-26.51 0-48 21.49-48 48v128h272v-128c0-26.51-21.49-48-48-48z" fill="#6ab1cd" fill-opacity="1" data-original-color="#643773ff" stroke="none" stroke-opacity="1" style=""/></g></g></g><g><g><g><path d="m96 320c-26.51 0-48 21.49-48 48v128h96v-128c0-26.51-21.49-48-48-48z" fill="#6ab1cd" fill-opacity="1" data-original-color="#9b5faaff" stroke="none" stroke-opacity="1" style=""/></g></g></g><g><g><g><path d="m208 288h-80c-17.673 0-32 14.327-32 32h112z" fill="#f0915a" fill-opacity="1" data-original-color="#f0915aff" stroke="none" stroke-opacity="1" style=""/></g></g></g><g><g><g><path d="m160 320c26.51 0 48 21.49 48 48v128h48v-128c0-26.51-21.49-48-48-48z" fill="#a5c3dc" fill-opacity="1" data-original-color="#a5c3dcff" stroke="none" stroke-opacity="1" style=""/></g></g></g><path d="m491.313 388.686c-6.248-6.248-16.379-6.248-22.627 0l-38.628 38.628c-3.021 3.022-7.04 4.686-11.313 4.686h-2.745-40c-4.418 0-8 3.582-8 8v40h32c0-8.837 7.163-16 16-16h2.745c12.821 0 24.875-4.993 33.941-14.059l38.627-38.627c6.249-6.249 6.249-16.379 0-22.628z" fill="#f0915a" fill-opacity="1" data-original-color="#f0915aff" stroke="none" stroke-opacity="1" style=""/><g><g><g><path d="m404 392h-36c-17.673 0-32 14.327-32 32v56h32v-40c0-4.418 3.582-8 8-8h28c11.046 0 20-8.954 20-20 0-11.046-8.954-20-20-20z" fill="#fab991" fill-opacity="1" data-original-color="#fab991ff" stroke="none" stroke-opacity="1" style=""/></g></g></g><g><g><g><path d="m408 496h-80v-8c0-4.418 3.582-8 8-8h64c4.418 0 8 3.582 8 8z" fill="#6ab1cd" fill-opacity="1" data-original-color="#643773ff" stroke="none" stroke-opacity="1" style=""/></g></g></g><g><g><g><circle cx="242.667" cy="160" fill="#463c4b" r="10.667" fill-opacity="1" data-original-color="#463c4bff" stroke="none" stroke-opacity="1" style=""/></g></g></g><g><g><g><circle cx="290.667" cy="160" fill="#463c4b" r="10.667" fill-opacity="1" data-original-color="#463c4bff" stroke="none" stroke-opacity="1" style=""/></g></g></g><g><g><g><path d="m240 192c-17.645 0-32-14.355-32-32s14.355-32 32-32 32 14.355 32 32-14.355 32-32 32zm0-56c-13.234 0-24 10.766-24 24s10.766 24 24 24 24-10.766 24-24-10.766-24-24-24z" fill="#555a6e" fill-opacity="1" data-original-color="#555a6eff" stroke="none" stroke-opacity="1" style=""/></g></g></g><g><g><g><g><path d="m480 368h-128c-8.837 0-16-7.163-16-16v-176c0-8.837 7.163-16 16-16h128c8.837 0 16 7.163 16 16v176c0 8.837-7.163 16-16 16z" fill="#463c4b" fill-opacity="1" data-original-color="#463c4bff" stroke="none" stroke-opacity="1" style=""/></g></g></g><g><g><g><path d="m464 368h-112c-8.837 0-16-7.163-16-16v-176c0-8.837 7.163-16 16-16h112c8.837 0 16 7.163 16 16v176c0 8.837-7.163 16-16 16z" fill="#555a6e" fill-opacity="1" data-original-color="#555a6eff" stroke="none" stroke-opacity="1" style=""/></g></g></g><g><g><g><path d="m460 352h-104c-2.209 0-4-1.791-4-4v-168c0-2.209 1.791-4 4-4h104c2.209 0 4 1.791 4 4v168c0 2.209-1.791 4-4 4z" fill="#d7e6f0" fill-opacity="1" data-original-color="#d7e6f0ff" stroke="none" stroke-opacity="1" style=""/></g></g></g><g><g><g><path d="m440 152h-8c0-13.25-10.75-24-24-24s-24 10.75-24 24h-8c-4.42 0-8 3.58-8 8v24c0 4.42 3.58 8 8 8h64c4.42 0 8-3.58 8-8v-24c0-4.42-3.58-8-8-8zm-32-8c4.42 0 8 3.58 8 8s-3.58 8-8 8-8-3.58-8-8 3.58-8 8-8z" fill="#faa019" fill-opacity="1" data-original-color="#faa019ff" stroke="none" stroke-opacity="1" style=""/></g></g></g></g><g><g><g><path d="m452.485 252.485-4.485-4.485v-8c0-22.091-17.909-40-40-40s-40 17.909-40 40c0 9.006 2.978 17.315 8 24.001v35.999c0 2.209 1.791 4 4 4h32c2.209 0 4-1.791 4-4v-12h24c4.418 0 8-3.582 8-8v-16h5c1.657 0 3-1.343 3-3v-.029c0-3.183-1.264-6.235-3.515-8.486z" fill="#6ab1cd" fill-opacity="1" data-original-color="#9b5faaff" stroke="none" stroke-opacity="1" style=""/></g></g></g><g><g><g><path d="m432 240c0-1.499-.138-2.965-.401-4.388l3.783-2.184c2.391-1.381 3.211-4.439 1.83-6.83l-3-5.196c-1.381-2.391-4.439-3.211-6.83-1.83l-3.787 2.186c-2.219-1.898-4.787-3.399-7.596-4.392v-4.366c0-2.761-2.239-5-5-5h-6c-2.761 0-5 2.239-5 5v4.366c-2.809.993-5.377 2.494-7.596 4.392l-3.787-2.186c-2.391-1.381-5.449-.561-6.83 1.83l-3 5.196c-1.381 2.391-.561 5.449 1.83 6.83l3.783 2.184c-.261 1.423-.399 2.889-.399 4.388s.138 2.965.401 4.388l-3.783 2.184c-2.391 1.381-3.211 4.439-1.83 6.83l3 5.196c1.381 2.391 4.439 3.211 6.83 1.83l3.787-2.186c2.219 1.898 4.787 3.4 7.596 4.392v4.366c0 2.761 2.239 5 5 5h6c2.761 0 5-2.239 5-5v-4.366c2.809-.993 5.377-2.494 7.596-4.392l3.787 2.186c2.391 1.381 5.449.561 6.83-1.83l3-5.196c1.381-2.391.561-5.449-1.83-6.83l-3.783-2.184c.261-1.423.399-2.889.399-4.388zm-24 8c-4.418 0-8-3.582-8-8s3.582-8 8-8 8 3.582 8 8-3.582 8-8 8z" fill="#6ab1cd" fill-opacity="1" data-original-color="#ffd205ff" stroke="none" stroke-opacity="1" style=""/></g></g></g><g><g><g><path d="m440 320h-64c-4.418 0-8 3.582-8 8 0 4.418 3.582 8 8 8h64c4.418 0 8-3.582 8-8 0-4.418-3.582-8-8-8z" fill="#a5c3dc" fill-opacity="1" data-original-color="#a5c3dcff" stroke="none" stroke-opacity="1" style=""/></g></g></g></g></g></svg>