<svg id="Icons" height="300" viewBox="0 0 60 60" width="300" xmlns="http://www.w3.org/2000/svg" version="1.1" xmlns:xlink="http://www.w3.org/1999/xlink" xmlns:svgjs="http://svgjs.dev/svgjs"><g width="100%" height="100%" transform="matrix(1,0,0,1,0,0)"><path d="m3 22h54v34h-54z" fill="#f3d55b" fill-opacity="1" data-original-color="#f3d55bff" stroke="none" stroke-opacity="1"/><path d="m53 28v27h-46v-27a1 1 0 0 1 1-1h44a1 1 0 0 1 1 1z" fill="#6ab1cd" fill-opacity="1" data-original-color="#67b9ccff" stroke="none" stroke-opacity="1"/><path d="m53 28v27h-37.3a26 26 0 0 1 11.46-28h24.84a1 1 0 0 1 1 1z" fill="#2fa8cc" fill-opacity="1" data-original-color="#2fa8ccff" stroke="none" stroke-opacity="1"/><rect fill="#a5a5a4" height="4" rx="2" width="58" x="1" y="55" fill-opacity="1" data-original-color="#a5a5a4ff" stroke="none" stroke-opacity="1"/><rect fill="#f0c419" height="6" rx="1" width="58" x="1" y="17" fill-opacity="1" data-original-color="#f0c419ff" stroke="none" stroke-opacity="1"/><path d="m26 31h8a2 2 0 0 1 2 2v22a0 0 0 0 1 0 0h-12a0 0 0 0 1 0 0v-22a2 2 0 0 1 2-2z" fill="#2980ba" fill-opacity="1" data-original-color="#2980baff" stroke="none" stroke-opacity="1"/><path d="m33 44h-1a1 1 0 0 1 0-2h1a1 1 0 0 1 0 2z" fill="#bdc3c7" fill-opacity="1" data-original-color="#bdc3c7ff" stroke="none" stroke-opacity="1"/><path d="m26.29 4.06a7.023 7.023 0 0 1 7.42 0l-1.63 3.77a3.019 3.019 0 0 0 -2.08-.83 2.973 2.973 0 0 0 -2.08.84z" fill="#3b97d3" fill-opacity="1" data-original-color="#3b97d3ff" stroke="none" stroke-opacity="1"/><path d="m12.06 10h-3.06a1 1 0 0 1 -1-1v-2a1 1 0 0 1 1-1h3.58z" fill="#3b97d3" fill-opacity="1" data-original-color="#3b97d3ff" stroke="none" stroke-opacity="1"/><path d="m14.54 14.85-2.34 1.75a2 2 0 0 1 -2.4-3.2l2.59-1.94z" fill="#2980ba" fill-opacity="1" data-original-color="#2980baff" stroke="none" stroke-opacity="1"/><path d="m47.94 10h3.06a1 1 0 0 0 1-1v-2a1 1 0 0 0 -1-1h-3.58z" fill="#3b97d3" fill-opacity="1" data-original-color="#3b97d3ff" stroke="none" stroke-opacity="1"/><path d="m47.61 11.46 2.59 1.94a2 2 0 0 1 -2.4 3.2l-2.34-1.75z" fill="#2980ba" fill-opacity="1" data-original-color="#2980baff" stroke="none" stroke-opacity="1"/><g fill="#b0d3f0"><circle cx="20" cy="9" r="8" fill="#b0d3f0" fill-opacity="1" data-original-color="#b0d3f0ff" stroke="none" stroke-opacity="1"/><circle cx="40" cy="9" r="8" fill="#b0d3f0" fill-opacity="1" data-original-color="#b0d3f0ff" stroke="none" stroke-opacity="1"/></g></g></svg>