<svg id="Capa_1" enable-background="new 0 0 512 512" height="512" viewBox="0 0 512 512" width="512" xmlns="http://www.w3.org/2000/svg"><g><path d="m439.74 116.66v49.49c0 25.81-21 46.69-46.82 46.69l-136.92 26.83-136.92-26.83c-25.82 0-46.82-20.88-46.82-46.69v-31.95c0-53.59 43.45-97.03 97.04-97.03h116.61c20.52 0 37.16-16.64 37.16-37.17 32.21 0 61.38 13.06 82.5 34.17 21.11 21.11 34.17 50.27 34.17 82.49z" fill="#2e485a"/><path d="m439.74 116.66v49.49c0 25.81-21 46.69-46.82 46.69l-136.92 26.83v-202.5h29.91c20.52 0 37.16-16.64 37.16-37.17 32.21 0 61.38 13.06 82.5 34.17 21.11 21.11 34.17 50.27 34.17 82.49z" fill="#132832"/><path d="m150.795 212.835h-31.718c-37.668 0-68.204 30.536-68.204 68.204 0 37.668 30.536 68.204 68.204 68.204h31.718z" fill="#ffb59e"/><path d="m392.923 212.835-28.41 5.567v130.84h28.41c37.668 0 68.204-30.536 68.204-68.204 0-37.667-30.536-68.203-68.204-68.203z" fill="#ed9e85"/><path d="m392.92 212.84v136.4c0 80.5-61.3 145.75-136.92 145.75-37.81 0-72.04-16.31-96.82-42.69-24.78-26.37-40.1-62.81-40.1-103.06v-136.4c0-19.3 7.82-36.75 20.47-49.37s30.11-20.42 49.41-20.42c18.86 21.48 41.75 38.5 67.04 50.35.86.41 1.73.81 2.6 1.2 26.33 11.9 55.17 18.24 84.73 18.24z" fill="#ffddcd"/><path d="m392.92 212.84v136.4c0 80.5-61.3 145.75-136.92 145.75v-301.59c.86.41 1.73.81 2.6 1.2 26.33 11.9 55.17 18.24 84.73 18.24z" fill="#ffb59e"/><path d="m184.13 304h30v71.28h-30z" fill="#2e485a"/><path d="m199.13 304h15v71.28h-15z" fill="#132832"/><path d="m167.13 256h64v64h-64z" fill="#00617e"/><path d="m199.13 256h32v64h-32z" fill="#2e485a"/><path d="m231.13 384v128h-64v-128l17-17h30z" fill="#b4dbde"/><path d="m231.13 384v128h-32v-145h15z" fill="#98b4d9"/></g></svg>