<svg id="Economy_management" height="300" viewBox="0 0 64 64" width="300" xmlns="http://www.w3.org/2000/svg" data-name="Economy management" version="1.1" xmlns:xlink="http://www.w3.org/1999/xlink" xmlns:svgjs="http://svgjs.dev/svgjs"><g width="100%" height="100%" transform="matrix(1,0,0,1,0,0)"><path d="m55 56h-38v-49a4 4 0 0 1 4-4h37l-.319 5-2.681 3z" fill="#f6ebeb" fill-opacity="1" data-original-color="#9bfbffff" stroke="none" stroke-opacity="1"/><path d="m61 13h-6v-7a3 3 0 0 1 3-3 3 3 0 0 1 3 3z" fill="#6ab1cd" fill-opacity="1" data-original-color="#009698ff" stroke="none" stroke-opacity="1"/><path d="m13 33.714-3 6.286-3-6.286v-25.714h6z" fill="#cca174" fill-opacity="1" data-original-color="#cca174ff" stroke="none" stroke-opacity="1"/><path d="m7 8h6v4h-6z" fill="#3e3d42" fill-opacity="1" data-original-color="#3e3d42ff" stroke="none" stroke-opacity="1"/><path d="m10 3a3 3 0 0 1 3 3v2a0 0 0 0 1 0 0h-6a0 0 0 0 1 0 0v-2a3 3 0 0 1 3-3z" fill="#ffb025" fill-opacity="1" data-original-color="#e9e9eaff" stroke="none" stroke-opacity="1"/><path d="m7 12h6v21h-6z" fill="#ecab9f" fill-opacity="1" data-original-color="#ec455aff" stroke="none" stroke-opacity="1"/><path d="m28 8h22v2h-22z" fill="#6ab1cd" fill-opacity="1" data-original-color="#1a6fb0ff" stroke="none" stroke-opacity="1"/><path d="m28 13h22v2h-22z" fill="#6ab1cd" fill-opacity="1" data-original-color="#1a6fb0ff" stroke="none" stroke-opacity="1"/><path d="m30 23v-1a1 1 0 0 0 -1-1h-4a1 1 0 0 0 -1 1v1a1 1 0 0 0 1 1h4a3.009 3.009 0 0 1 3 3v1a3.009 3.009 0 0 1 -3 3h-1v1h-2v-1h-1a3.009 3.009 0 0 1 -3-3h2a1 1 0 0 0 1 1h4a1 1 0 0 0 1-1v-1a1 1 0 0 0 -1-1h-4a3.009 3.009 0 0 1 -3-3v-1a3.009 3.009 0 0 1 3-3h1v-1h2v1h1a3.009 3.009 0 0 1 3 3v1z" fill="#fc8e00" fill-opacity="1" data-original-color="#ff9811ff" stroke="none" stroke-opacity="1"/><g fill="#1a6fb0"><path d="m22 8h4v2h-4z" fill="#6ab1cd" fill-opacity="1" data-original-color="#1a6fb0ff" stroke="none" stroke-opacity="1"/><path d="m22 13h4v2h-4z" fill="#6ab1cd" fill-opacity="1" data-original-color="#1a6fb0ff" stroke="none" stroke-opacity="1"/><path d="m41 24h9v2h-9z" fill="#6ab1cd" fill-opacity="1" data-original-color="#1a6fb0ff" stroke="none" stroke-opacity="1"/><path d="m35 24h4v2h-4z" fill="#6ab1cd" fill-opacity="1" data-original-color="#1a6fb0ff" stroke="none" stroke-opacity="1"/><path d="m41 29h9v2h-9z" fill="#6ab1cd" fill-opacity="1" data-original-color="#1a6fb0ff" stroke="none" stroke-opacity="1"/><path d="m35 29h4v2h-4z" fill="#6ab1cd" fill-opacity="1" data-original-color="#1a6fb0ff" stroke="none" stroke-opacity="1"/><path d="m41 19h9v2h-9z" fill="#6ab1cd" fill-opacity="1" data-original-color="#1a6fb0ff" stroke="none" stroke-opacity="1"/><path d="m35 19h4v2h-4z" fill="#6ab1cd" fill-opacity="1" data-original-color="#1a6fb0ff" stroke="none" stroke-opacity="1"/></g><path d="m48 53h-5v-2h4v-9a1 1 0 0 0 -1-1h-3v-2h3a3 3 0 0 1 3 3v10a1 1 0 0 1 -1 1z" fill="#3e3d42" fill-opacity="1" data-original-color="#3e3d42ff" stroke="none" stroke-opacity="1"/><path d="m8 53h-5a1 1 0 0 1 -1-1v-10a3 3 0 0 1 3-3h3v2h-3a1 1 0 0 0 -1 1v9h4z" fill="#3e3d42" fill-opacity="1" data-original-color="#3e3d42ff" stroke="none" stroke-opacity="1"/><path d="m23 51h5v2h-5z" fill="#3e3d42" fill-opacity="1" data-original-color="#3e3d42ff" stroke="none" stroke-opacity="1"/><circle cx="15" cy="52" fill="#2488ff" r="9" fill-opacity="1" data-original-color="#2488ffff" stroke="none" stroke-opacity="1"/><circle cx="36" cy="52" fill="#2488ff" r="9" fill-opacity="1" data-original-color="#2488ffff" stroke="none" stroke-opacity="1"/><path d="m8 52h2a5.006 5.006 0 0 1 5-5v-2a7.009 7.009 0 0 0 -7 7z" fill="#ffffff" fill-opacity="1" data-original-color="#ffffffff" stroke="none" stroke-opacity="1"/><path d="m29 52h2a5.006 5.006 0 0 1 5-5v-2a7.009 7.009 0 0 0 -7 7z" fill="#ffffff" fill-opacity="1" data-original-color="#ffffffff" stroke="none" stroke-opacity="1"/></g></svg>